<svg width="92" height="92" viewBox="0 0 92 92" fill="none" xmlns="http://www.w3.org/2000/svg">
<path d="M65.1333 42.2686C66.448 42.2686 67.724 42.4235 69 42.6172V29.0225C69 25.9239 67.1827 23.1353 64.36 21.9346L43.0933 12.6391C41.1213 11.787 38.8787 11.787 36.9067 12.6391L15.64 21.9346C12.8173 23.174 11 25.9627 11 29.0225V42.9658C11 60.5498 23.3733 77.0107 40 81C42.1267 80.4965 44.176 79.7606 46.1867 78.8698C43.5187 75.0741 41.9333 70.4651 41.9333 65.5074C41.9333 52.6873 52.3347 42.2686 65.1333 42.2686Z" fill="white"/>
<path d="M65.5 50C56.9362 50 50 56.9362 50 65.5C50 74.0637 56.9362 81 65.5 81C74.0637 81 81 74.0637 81 65.5C81 56.9362 74.0637 50 65.5 50ZM65.5 55.3475C67.9025 55.3475 69.84 57.3238 69.84 59.6875C69.84 62.0513 67.8638 64.0275 65.5 64.0275C63.1362 64.0275 61.16 62.0513 61.16 59.6875C61.16 57.3238 63.0975 55.3475 65.5 55.3475ZM65.5 76.1562C61.8962 76.1562 58.7575 74.3737 56.82 71.6225C57.0138 68.8325 62.6713 67.4375 65.5 67.4375C68.3288 67.4375 73.9862 68.8325 74.18 71.6225C72.2425 74.3737 69.1038 76.1562 65.5 76.1562Z" fill="white"/>
</svg>
