<svg width="30" height="30" viewBox="0 0 30 30" fill="none" xmlns="http://www.w3.org/2000/svg">
<path d="M20.4219 15.1499H10.2353C9.73377 15.1499 9.32339 14.7051 9.32339 14.1614C9.32339 13.6178 9.73377 13.173 10.2353 13.173H20.4219L15.9715 8.34925C15.6159 7.96375 15.6159 7.34101 15.9715 6.95551C16.3272 6.57001 16.9017 6.57001 17.2574 6.95551L23.2672 13.4695C23.6228 13.855 23.6228 14.4777 23.2672 14.8633L17.2574 21.3773C17.087 21.5624 16.8557 21.6664 16.6145 21.6664C16.3733 21.6664 16.1419 21.5624 15.9715 21.3773C15.6159 20.9918 15.6159 20.3591 15.9715 19.9736L20.4219 15.1499Z" fill="url(#paint0_linear_0_1419)"/>
<defs>
<linearGradient id="paint0_linear_0_1419" x1="16.4287" y1="6.66638" x2="16.4287" y2="21.6664" gradientUnits="userSpaceOnUse">
<stop stop-color="#E83251"/>
<stop offset="1" stop-color="#E9456D"/>
</linearGradient>
</defs>
</svg>
