<svg width="24" height="24" viewBox="0 0 24 24" fill="none" xmlns="http://www.w3.org/2000/svg">
<g clip-path="url(#clip0_0_59)">
<path d="M19.23 15.2603L16.69 14.9703C16.08 14.9003 15.48 15.1103 15.05 15.5403L13.21 17.3803C10.38 15.9403 8.05998 13.6303 6.61998 10.7903L8.46998 8.94025C8.89998 8.51025 9.10998 7.91025 9.03998 7.30025L8.74998 4.78025C8.62998 3.77025 7.77998 3.01025 6.75998 3.01025H5.02998C3.89998 3.01025 2.95998 3.95025 3.02998 5.08025C3.55998 13.6203 10.39 20.4403 18.92 20.9703C20.05 21.0403 20.99 20.1003 20.99 18.9703V17.2403C21 16.2303 20.24 15.3803 19.23 15.2603Z" fill="#B8C1CE"/>
</g>
<defs>
<clipPath id="clip0_0_59">
<rect width="24" height="24" fill="white" transform="translate(0 0.000244141)"/>
</clipPath>
</defs>
</svg>
