<svg width="197" height="221" viewBox="0 0 197 221" fill="none" xmlns="http://www.w3.org/2000/svg">
<path d="M115.453 20.6783C116.055 21.1603 115.801 22.2647 114.941 22.3861C113.943 22.5278 112.938 22.6228 111.929 22.6707C113.96 25.8916 115.712 29.2433 117.17 32.6973C118.383 35.4791 121.287 42.9137 121.287 42.9137C119.527 42.6936 117.471 41.7751 115.694 41.2362C113.143 40.4882 110.646 39.601 108.22 38.5797L114.381 72.3824L114.356 72.8871C114.756 72.705 115.104 72.5494 115.362 72.4545C116.954 71.8511 118.628 84.7202 118.628 84.7202C118.628 84.7202 127.608 87.6272 131.928 89.316C138.171 91.7562 143.79 93.8094 149.59 96.9858C160.911 103.191 171.487 109.51 180.505 118.367C181.585 119.426 182.7 120.477 183.784 121.551C186.503 116.997 187.936 111.608 188.947 106.864C190.474 99.6755 190.781 92.3265 189.859 85.0579C188.057 70.7391 181.732 56.7201 171.513 45.4488C161.397 34.2913 147.801 25.7144 132.728 20.5151C125.725 18.1026 118.443 16.3757 111.012 15.3652C112.26 17.3956 113.659 19.2438 115.453 20.6783Z" fill="#EAEDFA"/>
<path d="M14.3091 124.979C26.8434 110.694 43.2025 99.3775 61.9185 92.0449C65.0767 90.804 71.2898 88.6104 72.985 86.2499C72.985 86.1512 74.6115 81.377 75.515 78.7166C76.2809 76.4624 77.0296 75.7451 78.3118 75.6313V75.6085C78.3118 75.6085 77.9116 61.9766 77.7309 58.4965C77.5072 54.2119 77.1845 49.9159 77.1587 45.5933H77.1285C75.7775 45.2441 74.9772 43.5136 74.4135 42.5117C73.7359 41.323 73.1717 40.0866 72.7269 38.8153C72.5419 38.2878 72.3827 37.7564 72.2364 37.2213H72.4472C68.7297 37.0468 66.0792 36.6711 64.9906 36.1132C63.4022 35.1787 62.2714 33.7504 61.8238 32.1132C61.1999 29.3693 63.5062 26.8456 66.2556 26.2384C67.7748 25.9238 69.3343 25.7873 70.8939 25.8323C70.8595 24.2764 70.8595 22.7166 70.8939 21.1644C70.8939 19.9538 70.9542 18.7318 71.0746 17.5173C58.5237 20.8836 47.2592 26.9746 38.4473 36.0221C32.7978 41.8248 28.1853 48.3864 23.9515 55.0392C19.4724 62.0791 15.4881 69.3694 12.588 77.0506C7.05477 91.6654 5.6822 108.132 12.9796 122.504C13.3754 123.343 13.8315 124.166 14.3091 124.979Z" fill="#EAEDFA"/>
<path d="M47.7198 202.898C43.7914 199.755 41.9886 194.928 39.9104 190.537C37.9527 186.419 35.2764 177.881 35.2764 177.881C35.2764 177.881 23.5601 184.621 22.5404 188.431C19.0552 186.18 9.83023 188.837 6.34504 190.86C10.1701 190.063 16.7705 184.184 13.2035 180.26C12.0117 178.951 4.5336 174.757 2.06816 176.294C-1.57623 178.571 5.12738 180.469 6.93881 180.423C17.0243 180.211 11.6115 167.034 5.58777 164.609C8.76316 166.416 10.7037 168.613 14.8386 168.214C19.4812 167.767 22.6394 164.04 23.5774 160.344" stroke="#05082E" stroke-linecap="round" stroke-linejoin="round"/>
<path d="M22.536 188.432C22.2736 189.813 22.9921 194.17 23.4697 195.756C24.365 198.63 25.7073 201.381 27.4583 203.931C28.5524 205.55 30.011 206.955 31.744 208.058C33.4771 209.161 35.448 209.939 37.5352 210.344C37.7762 213.991 36.9372 216.621 35.5603 219.999" stroke="#05082E" stroke-linecap="round" stroke-linejoin="round"/>
<path d="M47.7198 203.152C47.4402 204.629 39.3683 209.149 37.303 210.298" stroke="#05082E" stroke-linecap="round" stroke-linejoin="round"/>
<path d="M91.3361 162.549C88.5394 162.2 86.0137 160.853 82.877 160.781C80.9064 160.735 77.1415 163.301 77.5115 165.012" stroke="#05082E" stroke-linecap="round" stroke-linejoin="round"/>
<path d="M35.6721 179.066C35.6721 179.066 39.2692 175.016 41.0634 172.77C44.2732 168.751 47.7025 164.686 51.3167 160.922C56.5875 155.438 62.6242 149.718 70.9112 148.576C77.873 147.62 84.1937 149.066 90.2734 151.916" stroke="#05082E" stroke-linecap="round" stroke-linejoin="round"/>
<path d="M71.7379 162.821C76.9786 164.446 80.4208 166.161 84.5987 169.531C86.5564 171.102 88.2302 173.88 88.2302 176.476C88.2302 179.072 86.1606 181.679 83.6306 182.442" stroke="#05082E" stroke-linecap="round" stroke-linejoin="round"/>
<path d="M70.2878 170.224C80.1237 173.317 93.6385 190.937 76.6299 194.732" stroke="#05082E" stroke-linecap="round" stroke-linejoin="round"/>
<path d="M47.4269 202.386C55.6751 203.145 74.9383 185.775 65.0421 186.34C55.1459 186.906 56.1742 199.623 64.9604 201.24C73.4668 202.822 79.6799 192.91 77.7867 186.439C76.9606 183.6 72.7654 180.746 69.9988 180.693" stroke="#05082E" stroke-linecap="round" stroke-linejoin="round"/>
<path d="M95.7554 95.1943C96.0179 98.7845 85.5967 116.963 90.3211 118.879C91.9905 119.559 93.0705 117.172 94.7356 117.361C96.1641 117.536 97.4808 119.657 97.5711 120.75C97.9455 125.354 87.7395 134.12 92.3261 134.458C96.9128 134.796 100.48 136.481 98.0358 142.075" stroke="#05082E" stroke-linecap="round" stroke-linejoin="round"/>
<path d="M133.378 173.543C138.154 175.384 138.679 177.718 139.892 180.689C141.846 185.49 142.594 192.017 150.744 191.41" stroke="#05082E" stroke-linecap="round" stroke-linejoin="round"/>
<path d="M132.458 152.72C132.346 150.473 132.277 148.192 131.985 145.957C131.77 144.306 131.171 142.651 129.468 141.74C127.764 140.83 125.763 140.951 123.917 140.981C121.014 141.024 118.113 141.151 115.213 141.361C110.101 141.74 104.787 142.23 99.8177 143.391C95.3601 144.431 92.2363 146.784 92.0728 151.035C91.9868 154.088 92.083 157.144 92.3611 160.188C92.2793 162.788 93.8799 178.784 93.6218 184.196L96.4702 185.524C104.482 189.426 115.376 189.63 122.265 188.499C129.153 187.369 133.129 185.991 133.129 185.991C132.937 184.861 132.886 183.715 132.979 182.575C133.491 177.615 132.518 172.636 132.652 167.653C132.785 162.67 132.703 157.699 132.458 152.72Z" fill="url(#paint0_linear_0_392)" stroke="#9ED5F0" stroke-linecap="round" stroke-linejoin="round"/>
<path d="M11.0569 128.883C23.9154 112.767 41.4953 100.034 61.9191 92.0439C65.0816 90.8029 71.3033 88.6055 72.9899 86.245C72.8781 86.4879 74.5819 81.4708 75.5156 78.7156C76.8753 74.7118 78.1833 75.5505 82.5247 76.0325C90.0071 76.8598 98.4232 78.1046 105.901 76.3512C109.107 75.5922 113.78 73.0457 115.367 72.4461C116.955 71.8465 118.633 84.7118 118.633 84.7118C118.633 84.7118 127.613 87.6188 131.933 89.3076C138.176 91.7478 143.795 93.801 149.595 96.9775C160.916 103.182 171.492 109.501 180.51 118.359C183.006 120.807 185.673 123.213 187.799 125.907C190.81 129.749 193.549 133.752 196 137.892" stroke="#05082E" stroke-linecap="round" stroke-linejoin="round"/>
<path d="M75.7866 87.52C77.37 89.7098 83.041 95.5504 86.3627 94.5523C91.0956 93.133 93.389 85.1671 94.6066 81.4707C95.6909 85.706 98.8663 92.8559 103.715 94.7535C108.763 96.7573 115.333 90.3626 116.624 86.298C116.574 86.7108 116.47 87.1171 116.314 87.5087" stroke="#05082E" stroke-linecap="round" stroke-linejoin="round"/>
<path d="M149.736 121.11C146.561 120.887 133.67 122.541 130.873 123.611" stroke="#05082E" stroke-linecap="round" stroke-linejoin="round"/>
<path d="M144.793 117.372C146.037 119.771 147.009 126.48 147.009 126.48" stroke="#05082E" stroke-linecap="round" stroke-linejoin="round"/>
<path d="M140.452 115.839C141.395 118.489 142.083 121.204 142.508 123.957C142.758 125.444 143.636 131.581 143.636 131.581" stroke="#05082E" stroke-linecap="round" stroke-linejoin="round"/>
<path d="M151.415 220C152.594 217.882 153.721 215.135 153.751 212.11C153.79 207.882 153.902 205.074 153.485 200.873C153.214 198.144 153.265 192.873 150.791 190.953C150.791 190.953 159.934 186.474 164.938 184.501C169.581 187.583 169.968 193.526 171.083 200.133C172.197 206.74 171.401 213.268 169.96 215.082C168.518 216.896 157.353 220.004 151.415 220Z" stroke="#05082E" stroke-linecap="round" stroke-linejoin="round"/>
<path d="M166.083 185.03C166.466 180.689 171.677 170.825 178.836 178.806C175.239 175.269 174.602 170.013 174.241 165.144C173.931 160.939 178.41 158.07 180.394 163.197C182.115 167.6 178.742 169.52 174.086 168.07C169.431 166.62 167.202 162.757 165.636 158.856C164.603 156.256 163.153 148.765 163.514 146.332" stroke="#05082E" stroke-linecap="round" stroke-linejoin="round"/>
<path d="M152.047 218.742C143.747 219.998 139.238 219.737 133.885 219.535C126.2 219.251 117.406 218.993 110.616 215.494C106.344 213.293 100.72 211.721 97.2046 208.526C96.1805 207.6 91.6111 202.807 92.7642 201.877" stroke="#05082E" stroke-linecap="round" stroke-linejoin="round"/>
<path d="M108.388 208.344C104.542 207.274 88.9744 203.304 91.2204 197.281" stroke="#05082E" stroke-linecap="round" stroke-linejoin="round"/>
<path d="M108.585 202.215C102.991 201.456 94.6098 199.619 90.0834 196.348C88.4311 195.164 84.7824 190.917 88.3623 189.961" stroke="#05082E" stroke-linecap="round" stroke-linejoin="round"/>
<path d="M110.325 197.452C107.928 196.405 83.7085 191.942 89.6721 185.915C92.0902 183.471 97.3739 186.701 100.11 187.411C106.788 189.152 113.84 190.348 120.789 189.114C125.268 188.321 132.088 187.187 135.418 184.689" stroke="#05082E" stroke-linecap="round" stroke-linejoin="round"/>
<path d="M78.295 75.6069C78.295 75.6069 77.8948 61.975 77.7141 58.495C77.4818 54.0092 77.1332 49.512 77.1375 45.0035C77.1375 42.7834 76.9095 37.3488 76.9095 37.3488C70.8513 37.3185 66.4582 36.8934 64.9738 36.1306C63.3854 35.1961 62.2546 33.7678 61.807 32.1306C61.1831 29.3868 63.4937 26.863 66.2388 26.2558C69.681 25.4968 73.2866 25.9788 76.7245 26.2558C76.7245 26.2558 76.5352 18.3089 77.9895 14.5822C79.6761 10.2672 85.0932 7.46642 90.1489 7.04138C96.2372 6.52525 102.627 11.9067 106.31 15.6144C111.224 20.548 114.515 26.5784 117.17 32.6923C118.383 35.4741 121.288 42.9086 121.288 42.9086C119.528 42.6885 117.471 41.7701 115.694 41.2312C113.143 40.4831 110.647 39.5959 108.22 38.5746L114.382 72.3773" stroke="#05082E" stroke-linecap="round" stroke-linejoin="round"/>
<path d="M88.9696 38.3779C89.7398 40.1426 92.1923 42.3476 94.0511 42.0364" stroke="#05082E" stroke-linecap="round" stroke-linejoin="round"/>
<path d="M92.1885 29.4062V31.1937" stroke="#05082E" stroke-linecap="round" stroke-linejoin="round"/>
<path d="M100.29 29.915V31.9568" stroke="#05082E" stroke-linecap="round" stroke-linejoin="round"/>
<path d="M69.8056 31.1943C70.9544 31.4524 72.2754 31.8319 73.4715 31.8737" stroke="#05082E" stroke-linecap="round" stroke-linejoin="round"/>
<path d="M76.9089 37.3491C75.1878 37.3491 73.6303 37.2998 72.219 37.2314C72.3653 37.7666 72.5245 38.2979 72.7095 38.8254C73.1544 40.0967 73.7185 41.3331 74.3962 42.5218C74.977 43.5237 75.7601 45.2542 77.1112 45.6034H77.1413C77.1413 45.4022 77.1413 45.1973 77.1413 44.9962C77.1413 42.7836 76.9089 37.3491 76.9089 37.3491Z" fill="#05082E"/>
<path d="M115.453 20.6781C108.013 14.7198 107.394 1.43324 95.527 0.0632206C93.146 -0.178321 90.741 0.276334 88.6814 1.35734C87.6255 1.89832 86.6462 2.54804 85.7642 3.29282C85.0112 3.91901 84.4217 4.59074 83.6429 5.07651C82.6269 4.78953 81.5533 4.69628 80.4933 4.80293C79.4333 4.90957 78.4111 5.21368 77.4944 5.69511C74.9127 7.03097 73.3164 9.43325 72.3311 11.8659C71.1393 14.8412 70.894 18.0519 70.8553 21.1828C70.8338 22.735 70.8338 24.2948 70.8553 25.8507C72.4731 25.8773 74.0866 26.0291 75.6743 26.1695C76.1782 27.6701 76.826 29.1301 77.6105 30.5339C78.0838 31.3764 79.4306 31.0614 79.7275 30.291C81.4141 25.9039 83.1911 21.5395 84.7788 17.1221C85.5619 14.9437 86.1815 12.6401 86.0696 10.3934C88.9343 14.738 93.229 18.2117 98.3838 20.3535C103.539 22.4954 109.31 23.2041 114.932 22.3858C115.801 22.2644 116.055 21.16 115.453 20.6781Z" fill="#05082E"/>
<path d="M104.529 149.05L104.334 149.558" stroke="#05082E" stroke-linecap="round" stroke-linejoin="round"/>
<path d="M98.8266 149.945V150.116" stroke="#05082E" stroke-linecap="round" stroke-linejoin="round"/>
<path d="M110.358 148.598H111.219" stroke="#05082E" stroke-linecap="round" stroke-linejoin="round"/>
<defs>
<linearGradient id="paint0_linear_0_392" x1="112.586" y1="140.959" x2="112.586" y2="189.098" gradientUnits="userSpaceOnUse">
<stop stop-color="#E83251"/>
<stop offset="1" stop-color="#E9456D"/>
</linearGradient>
</defs>
</svg>
