<svg width="50" height="50" viewBox="0 0 50 50" fill="none" xmlns="http://www.w3.org/2000/svg">
<rect x="0.5" y="0.5" width="49" height="49" rx="12.5" fill="white"/>
<rect x="0.5" y="0.5" width="49" height="49" rx="12.5" stroke="#E3E4F1"/>
<g clip-path="url(#clip0_1_669)">
<path d="M18.3189 27.5035L17.4835 30.6222L14.4301 30.6868C13.5176 28.9943 13 27.0578 13 25C13 23.0101 13.4839 21.1336 14.3417 19.4813H14.3424L17.0608 19.9797L18.2516 22.6818C18.0024 23.4084 17.8665 24.1884 17.8665 25C17.8666 25.8809 18.0262 26.7249 18.3189 27.5035Z" fill="#FBBB00"/>
<path d="M36.7903 22.7582C36.9281 23.4841 37 24.2338 37 25C37 25.8591 36.9097 26.6972 36.7376 27.5055C36.1534 30.2563 34.627 32.6582 32.5125 34.358L32.5119 34.3574L29.0879 34.1827L28.6034 31.1576C30.0064 30.3347 31.1029 29.047 31.6805 27.5055H25.2638V22.7582H31.7741H36.7903Z" fill="#518EF8"/>
<path d="M32.5119 34.3574L32.5125 34.358C30.4561 36.011 27.8437 37 25 37C20.4301 37 16.4569 34.4457 14.4301 30.6868L18.3189 27.5035C19.3323 30.2081 21.9413 32.1334 25 32.1334C26.3147 32.1334 27.5464 31.778 28.6033 31.1576L32.5119 34.3574Z" fill="#28B446"/>
<path d="M32.6595 15.7626L28.7721 18.9452C27.6782 18.2615 26.3852 17.8666 25 17.8666C21.8721 17.8666 19.2143 19.8802 18.2516 22.6817L14.3424 19.4813H14.3417C16.3389 15.6308 20.3622 13 25 13C27.9116 13 30.5813 14.0372 32.6595 15.7626Z" fill="#F14336"/>
</g>
<defs>
<clipPath id="clip0_1_669">
<rect width="24" height="24" fill="white" transform="translate(13 13)"/>
</clipPath>
</defs>
</svg>
