<svg width="87" height="69" viewBox="0 0 87 69" fill="none" xmlns="http://www.w3.org/2000/svg">
<g clip-path="url(#clip0_1_991)">
<path d="M42.2749 0C48.9124 0.177492 55.6835 3.9492 59.8709 11.537C64.0583 19.1248 63.7911 26.89 59.2027 34.3003C58.1336 36.0309 58.2227 37.0071 59.6482 38.3826C61.2964 39.9357 62.6329 41.2225 65.3502 40.4238C67.8003 39.6695 70.1613 40.7788 72.0322 42.6424C76.2642 46.8135 80.4961 50.9402 84.639 55.2C87.8018 58.4392 87.7573 63.2759 84.7281 66.4264C81.6098 69.6656 76.6206 70.0206 73.3241 66.8701C68.8694 62.6547 64.5484 58.2617 60.2719 53.8688C58.3564 51.872 57.5991 49.3428 58.4454 46.6804C58.98 44.9498 58.5791 43.8849 57.2427 42.8643C56.7527 42.5093 56.3517 42.0656 55.9954 41.6219C54.9262 40.2019 53.9908 40.2907 52.4762 41.2225C41.0722 48.5884 25.8817 44.373 20.0015 32.3035C12.6513 17.3055 23.4316 0.088746 42.2749 0ZM40.1812 4.9254C30.3809 4.96978 22.6298 12.735 22.6743 22.4084C22.7634 32.126 30.5591 39.9357 40.2258 39.9357C49.9815 39.8913 57.8218 31.9486 57.7327 22.1865C57.6882 12.6019 49.8034 4.88103 40.1812 4.9254Z" fill="white"/>
<path d="M62.4547 12.1138C67.1767 11.9807 71.765 11.7588 76.3533 11.8032C78.6252 11.8476 80.2289 13.7556 80.318 16.1074C80.4071 19.3466 80.3625 22.5858 80.3625 25.8694C80.3625 27.9993 78.6252 28.3099 76.6651 29.153C76.6651 25.7363 76.6651 22.6746 76.6651 19.6128C76.3979 19.6128 76.1306 19.6128 75.8187 19.5685C75.7297 20.1897 75.5515 20.8553 75.5515 21.4765C75.5069 23.6952 75.5069 25.9138 75.5515 28.1325C75.596 29.3749 75.1505 30.2624 73.9032 30.3067C70.9186 30.3955 67.8894 30.3955 64.9048 30.2624C64.4148 30.218 63.5238 29.153 63.6129 28.7537C65.0384 23.1627 64.4593 17.7935 62.4101 12.4688C62.3656 12.38 62.4547 12.2026 62.4547 12.1138Z" fill="white"/>
<path d="M17.4624 11.7145C17.0169 16.3293 16.5714 20.5447 16.215 24.7601C16.1259 25.5588 16.3487 26.3576 16.5269 27.1563C17.1505 30.1293 17.106 30.3511 14.1213 30.6174C11.8049 30.8392 9.39937 30.6174 7.03839 30.4399C5.47925 30.3511 4.72195 29.508 4.85559 27.8219C4.98924 25.7807 4.90014 23.6952 4.90014 21.6097C4.90014 20.9441 4.72195 20.3228 4.63286 19.6572C4.32103 19.6572 4.05375 19.6572 3.74192 19.7016C3.74192 22.7633 3.74192 25.8251 3.74192 29.1087C1.11366 28.31 -0.178199 27.245 0.044535 24.7158C0.267269 22.4527 0.0890819 20.1453 0.0890819 17.8379C0.0890819 13.0457 2.04914 11.0045 6.81566 11.8032C9.7112 12.2913 12.4731 12.6463 15.3241 11.7588C16.0814 11.4926 17.0169 11.7145 17.4624 11.7145Z" fill="white"/>
<path d="M11.0476 1.0206C13.8095 1.06497 16.126 3.41674 16.0369 6.16787C15.9923 8.78587 13.5868 11.0489 10.9585 11.0045C8.33025 10.9601 6.01382 8.65275 5.96927 6.03475C5.96927 3.23925 8.24116 0.976227 11.0476 1.0206Z" fill="white"/>
<path d="M69.404 0.976196C72.0768 0.976196 74.3041 3.23922 74.3487 5.9016C74.3932 8.6971 72.1213 10.9601 69.3149 10.9601C66.6421 10.9157 64.3702 8.6971 64.3256 6.03472C64.2811 3.23922 66.5975 0.976196 69.404 0.976196Z" fill="white"/>
<path d="M33.0983 26.0913C32.3856 29.0643 33.1429 32.1704 32.6528 35.1878C29.98 34.6997 29.2227 33.8566 29.1782 31.5048C29.1782 29.0643 29.1782 26.6238 29.1782 24.1833C29.2227 19.4354 31.5837 17.2611 36.2166 18.2373C38.8894 18.8141 41.3395 18.8141 44.0568 18.2817C48.8679 17.2611 51.1843 19.391 51.1843 24.3164C51.1843 26.6238 51.0507 28.8868 51.2289 31.1942C51.4516 33.7235 50.1152 34.7884 47.576 35.4984C47.576 32.2592 47.576 29.2418 47.576 26.2244C47.3088 26.1801 47.0415 26.1801 46.8187 26.1357C46.6851 26.6682 46.4178 27.2006 46.4178 27.6887C46.3733 30.0405 46.5069 32.4367 46.3287 34.7884C46.2842 35.4984 45.3932 36.6965 44.8587 36.7408C41.7849 36.8296 38.6667 36.7852 35.6375 36.7408C34.3456 36.6965 33.9893 35.809 34.0338 34.5666C34.1229 32.4367 34.0783 30.3068 34.0338 28.1325C34.0338 27.4669 33.9447 26.7569 33.8556 26.0913C33.5883 26.0913 33.3656 26.0913 33.0983 26.0913Z" fill="white"/>
<path d="M40.3149 17.3942C37.553 17.4386 35.192 15.1312 35.192 12.3801C35.192 9.71768 37.3748 7.45466 40.0922 7.36592C42.8095 7.27717 45.1705 9.67331 45.2151 12.3801C45.2151 15.1312 42.9877 17.3498 40.3149 17.3942Z" fill="white"/>
</g>
<defs>
<clipPath id="clip0_1_991">
<rect width="87" height="69" fill="white"/>
</clipPath>
</defs>
</svg>
