<svg width="73" height="66" viewBox="0 0 73 66" fill="none" xmlns="http://www.w3.org/2000/svg">
<g clip-path="url(#clip0_1_987)">
<path d="M36.5437 0C36.5437 1.95965 36.5437 3.82718 36.5437 5.69471C36.5437 25.6262 36.5437 45.5493 36.5525 65.4808C36.5525 65.8744 36.4563 66 36.0278 66C24.1788 65.9832 12.3299 65.9916 0.480954 65.9916C0.34104 65.9916 0.192381 65.9833 0.00874461 65.9749C0.00874461 65.8158 0.00874461 65.6818 0.00874461 65.5478C0.00874461 58.5131 0.00874461 51.4785 0 44.4439C0 44.1089 0.0524677 43.8828 0.428486 43.8074C0.55091 43.7823 0.66459 43.6985 0.787015 43.665C1.11057 43.5896 1.19801 43.4054 1.19801 43.0872C1.18927 39.3437 1.19801 35.6087 1.18052 31.8652C1.18052 31.4716 1.32044 31.3125 1.67022 31.1618C5.46538 29.5706 9.26054 27.9627 13.0557 26.3548C13.1694 26.3045 13.2918 26.271 13.4842 26.204C13.4842 30.3411 13.4842 34.4362 13.4842 38.6068C14.0963 38.3723 14.6297 38.1713 15.1981 37.9619C15.1981 42.1157 15.1981 46.2109 15.1981 50.3982C15.373 50.2977 15.4954 50.2391 15.6091 50.1721C16.23 49.7868 16.8421 49.3765 17.4805 49.0164C17.7778 48.8405 17.874 48.6395 17.874 48.3045C17.8652 40.1393 17.8652 31.9741 17.8652 23.8089C17.8652 19.8142 17.874 15.8279 17.8565 11.8333C17.8565 11.4983 17.9789 11.3057 18.2675 11.1382C24.2313 7.50362 30.1864 3.86068 36.1327 0.217739C36.2377 0.159117 36.3513 0.100495 36.5437 0ZM34.2964 13.5836C34.1739 13.6422 34.1127 13.6673 34.0515 13.7008C31.9878 14.9821 29.9153 16.255 27.8603 17.5447C27.7292 17.6285 27.6417 17.863 27.6417 18.0305C27.6242 19.4374 27.633 20.8443 27.633 22.2596C27.633 22.4606 27.633 22.6616 27.633 22.9128C27.7641 22.8542 27.8253 22.8291 27.8866 22.7956C29.9503 21.5645 32.014 20.3335 34.0603 19.0856C34.1827 19.0103 34.2789 18.8009 34.2789 18.6502C34.2964 17.4945 34.2876 16.3388 34.2876 15.1747C34.2964 14.6639 34.2964 14.153 34.2964 13.5836ZM34.2964 4.941C34.1477 5.01637 34.069 5.04987 33.999 5.09174C31.9441 6.36467 29.8891 7.62923 27.8516 8.91892C27.7292 8.99429 27.6505 9.21203 27.6417 9.36277C27.6242 10.8786 27.633 12.4027 27.633 13.9269C27.633 14.0274 27.6505 14.1279 27.6592 14.2535C27.7379 14.2284 27.7816 14.22 27.8166 14.1949C29.9066 12.9471 31.9878 11.6993 34.069 10.4431C34.1739 10.3845 34.2789 10.2337 34.2789 10.1165C34.3051 8.41644 34.2964 6.71641 34.2964 4.941ZM27.633 31.5721C27.8428 31.4549 27.9828 31.3795 28.1139 31.3041C30.0465 30.1401 31.979 28.976 33.9291 27.8203C34.2002 27.6612 34.3051 27.5021 34.3051 27.1922C34.2876 25.6597 34.2964 24.1271 34.2964 22.5862C34.2964 22.4774 34.2789 22.3769 34.2701 22.2512C34.2002 22.268 34.1564 22.2764 34.1215 22.2931C32.0228 23.5912 29.9153 24.8976 27.8166 26.204C27.7204 26.2627 27.6417 26.4301 27.633 26.539C27.633 28.1972 27.633 29.8386 27.633 31.5721ZM34.2964 30.8854C34.1739 30.944 34.1127 30.9608 34.0515 30.9943C31.9878 32.2756 29.9153 33.5485 27.8603 34.8382C27.7292 34.922 27.6417 35.1565 27.6417 35.3239C27.6242 36.8314 27.633 38.3388 27.633 39.8462C27.633 39.9467 27.6505 40.0556 27.6592 40.1979C27.7641 40.1477 27.8253 40.1226 27.8866 40.0891C29.9503 38.858 32.0053 37.6269 34.0603 36.3708C34.1914 36.287 34.2876 36.0609 34.2876 35.8934C34.3051 34.6372 34.2964 33.381 34.2964 32.1249C34.2964 31.7313 34.2964 31.3293 34.2964 30.8854ZM27.633 48.8489C27.7816 48.7735 27.8516 48.7484 27.9128 48.7149C29.959 47.4922 32.0053 46.2695 34.0428 45.0217C34.1739 44.938 34.2789 44.7118 34.2789 44.5527C34.2964 43.0034 34.2876 41.4541 34.2876 39.9132C34.2876 39.796 34.2701 39.6871 34.2526 39.5531C34.1652 39.5866 34.1302 39.595 34.0952 39.6117C32.0053 40.9014 29.9153 42.1911 27.8341 43.4975C27.7204 43.5729 27.6417 43.7655 27.633 43.9079C27.6155 44.7872 27.6242 45.6665 27.6242 46.5459C27.633 47.2828 27.633 48.0365 27.633 48.8489ZM20.0339 36.1112C20.1388 36.0609 20.1913 36.0525 20.235 36.019C22.0102 34.9555 23.7853 33.9003 25.5518 32.8199C25.6742 32.7446 25.7791 32.5352 25.7791 32.3845C25.7966 30.8352 25.7879 29.2943 25.7879 27.745C25.7879 27.6696 25.7616 27.6026 25.7354 27.4853C23.864 28.6494 22.0364 29.78 20.2088 30.9273C20.0951 30.9943 20.0339 31.2037 20.0339 31.346C20.0164 32.1835 20.0252 33.0209 20.0252 33.8584C20.0339 34.5954 20.0339 35.3239 20.0339 36.1112ZM25.7966 18.8512C25.6567 18.9182 25.6042 18.9349 25.5518 18.9684C23.7941 20.0571 22.0277 21.1458 20.2787 22.2512C20.1476 22.335 20.0426 22.5611 20.0426 22.7286C20.0252 24.1941 20.0339 25.6597 20.0339 27.1252C20.0339 27.2257 20.0514 27.3262 20.0689 27.4435C20.1476 27.4183 20.2 27.4183 20.235 27.4016C22.0277 26.3297 23.8203 25.2661 25.5955 24.1774C25.7092 24.1104 25.7791 23.9094 25.7879 23.767C25.8053 23.0803 25.7966 22.402 25.7966 21.7153C25.7966 20.7773 25.7966 19.8477 25.7966 18.8512ZM20.0339 18.8344C20.1738 18.759 20.2438 18.7339 20.2962 18.7004C22.0452 17.6536 23.8028 16.6068 25.543 15.5432C25.6742 15.4595 25.7704 15.2333 25.7791 15.0742C25.7966 13.8599 25.7879 12.6456 25.7879 11.4313C25.7879 11.0461 25.7879 10.6608 25.7879 10.2756C25.7092 10.2756 25.6742 10.2672 25.6567 10.2756C23.8378 11.3978 22.0102 12.52 20.1913 13.6506C20.1126 13.7008 20.0339 13.8264 20.0339 13.9185C20.0339 15.5348 20.0339 17.1511 20.0339 18.8344ZM20.0339 44.7453C20.1388 44.7035 20.1913 44.6867 20.2438 44.6616C22.0189 43.598 23.8028 42.5428 25.5692 41.4625C25.7004 41.3871 25.7879 41.1443 25.7879 40.9852C25.8053 39.5447 25.7966 38.1127 25.7966 36.6722C25.7966 36.5131 25.7966 36.354 25.7966 36.1698C25.6917 36.2033 25.6479 36.2033 25.613 36.2284C23.8291 37.3338 22.0364 38.4309 20.2613 39.5447C20.1388 39.6201 20.0426 39.8378 20.0426 39.9886C20.0252 40.9349 20.0339 41.8896 20.0339 42.8359C20.0339 43.464 20.0339 44.0837 20.0339 44.7453ZM25.7879 44.7956C25.6654 44.8458 25.6042 44.871 25.543 44.9045C23.7853 45.9931 22.0189 47.0735 20.27 48.1789C20.1388 48.2627 20.0426 48.4971 20.0426 48.6563C20.0252 50.1218 20.0252 51.5874 20.0339 53.0445C20.0339 53.145 20.0601 53.2455 20.0689 53.3795C20.1913 53.3209 20.27 53.2874 20.34 53.2455C22.0801 52.2071 23.8203 51.1686 25.5518 50.1134C25.6829 50.0297 25.7791 49.8036 25.7791 49.6445C25.7966 48.3632 25.7879 47.0818 25.7879 45.8005C25.7879 45.4823 25.7879 45.1641 25.7879 44.7956ZM11.9714 37.426C11.8664 37.4427 11.8052 37.4343 11.7615 37.4595C10.5198 38.0122 9.27803 38.5565 8.04504 39.126C7.93136 39.1762 7.82643 39.3772 7.82643 39.5112C7.80894 40.8679 7.81768 42.2162 7.81768 43.5729C7.81768 43.6734 7.84392 43.7823 7.8614 43.9163C9.18184 43.3552 10.4586 42.8192 11.7265 42.2497C11.8489 42.1911 11.9626 41.9817 11.9626 41.8394C11.9801 40.9014 11.9714 39.9718 11.9714 39.0339C11.9714 38.5063 11.9714 37.9787 11.9714 37.426ZM6.47101 31.9825C6.39231 31.9909 6.34859 31.9741 6.31361 31.9909C5.04564 32.552 3.77767 33.1047 2.51845 33.6825C2.40477 33.7328 2.31732 33.9338 2.31732 34.0678C2.29983 35.0978 2.30858 36.1279 2.29983 37.158C2.29983 37.5683 2.29983 37.9787 2.29983 38.4728C3.69897 37.8782 5.01066 37.3255 6.31361 36.756C6.39231 36.7225 6.46227 36.5801 6.46227 36.488C6.47976 34.989 6.47101 33.4899 6.47101 31.9825ZM2.75455 60.5147C4.12746 59.9284 5.40417 59.4008 6.67214 58.8397C6.79456 58.7895 6.8995 58.5718 6.8995 58.421C6.92573 57.6506 6.90824 56.8885 6.90824 56.118C6.90824 55.4229 6.90824 54.7278 6.90824 54.016C6.81205 54.0327 6.75084 54.0244 6.69837 54.0495C5.45664 54.5938 4.2149 55.1382 2.98191 55.7077C2.85949 55.7663 2.7633 55.984 2.7633 56.1348C2.74581 57.2653 2.75455 58.3959 2.75455 59.5265C2.75455 59.8279 2.75455 60.1294 2.75455 60.5147ZM2.75455 53.212C4.1362 52.6258 5.42166 52.0815 6.70712 51.512C6.8208 51.4617 6.90824 51.2524 6.90824 51.1184C6.92573 49.7366 6.91699 48.3548 6.91699 46.973C6.91699 46.8892 6.8995 46.7971 6.88201 46.6715C5.54408 47.2661 4.24988 47.8356 2.96442 48.4218C2.85949 48.472 2.78079 48.6646 2.78079 48.7903C2.7633 49.3597 2.7633 49.9376 2.7633 50.507C2.75455 51.378 2.75455 52.2573 2.75455 53.212ZM11.6478 29.6376C11.4729 29.7046 11.3505 29.7381 11.2368 29.7884C10.1175 30.2825 8.9982 30.7933 7.87015 31.279C7.61656 31.3879 7.50288 31.5219 7.50288 31.8066C7.52036 33.1298 7.51162 34.4614 7.51162 35.7845C7.51162 35.8934 7.52911 35.9939 7.5466 36.153C8.88452 35.5836 10.1875 35.0308 11.4817 34.4614C11.5779 34.4195 11.6391 34.2185 11.6478 34.0845C11.6653 33.314 11.6566 32.552 11.6566 31.7815C11.6478 31.078 11.6478 30.3829 11.6478 29.6376ZM8.30738 50.8671C8.42106 50.8504 8.48227 50.8504 8.526 50.8253C9.75024 50.3061 10.9745 49.7952 12.19 49.2592C12.3124 49.2006 12.4261 48.9912 12.4261 48.8489C12.4436 47.4838 12.4348 46.1188 12.4348 44.7453C12.4348 44.6448 12.4173 44.536 12.3999 44.3852C11.0619 44.9798 9.76773 45.5409 8.48227 46.1355C8.37734 46.1858 8.30738 46.4035 8.30738 46.5459C8.28989 47.6932 8.29864 48.8321 8.29864 49.9794C8.30738 50.2642 8.30738 50.5489 8.30738 50.8671ZM8.30738 58.1782C8.42106 58.153 8.48227 58.153 8.53474 58.1279C9.75898 57.6087 10.9832 57.0978 12.1987 56.5535C12.3212 56.4949 12.4348 56.2855 12.4348 56.1431C12.4523 54.7613 12.4436 53.3795 12.4436 51.9977C12.4436 51.914 12.4173 51.8218 12.3999 51.6962C11.0707 52.2825 9.79396 52.8436 8.51725 53.4214C8.42106 53.4633 8.31612 53.6308 8.31612 53.7313C8.29863 55.1968 8.30738 56.6624 8.30738 58.1782ZM6.77707 39.6871C6.57595 39.7708 6.44478 39.8211 6.32235 39.8797C5.36045 40.3068 4.41603 40.7758 3.42789 41.1443C2.78953 41.3788 2.57092 41.7054 2.60589 42.367C2.67585 43.6315 2.62338 44.8961 2.62338 46.2109C2.78953 46.1523 2.91196 46.1104 3.02564 46.0601C4.11871 45.5995 5.1943 45.1138 6.29612 44.6783C6.66339 44.536 6.79456 44.3601 6.78582 43.9749C6.75958 42.7187 6.77707 41.4625 6.77707 40.2063C6.77707 40.0556 6.77707 39.9048 6.77707 39.6871Z" fill="white"/>
<path d="M38.2752 0.192627C39.1321 0.7286 39.9279 1.21432 40.7149 1.70842C44.8074 4.27104 48.9086 6.83366 53.0098 9.38791C53.2809 9.5554 53.3596 9.73126 53.3596 10.0244C53.3509 28.5322 53.3509 47.0316 53.3509 65.5394C53.3509 65.665 53.3509 65.7823 53.3509 65.9414C48.314 65.9414 43.3121 65.9414 38.2839 65.9414C38.2752 44.0419 38.2752 22.1675 38.2752 0.192627Z" fill="white"/>
<path d="M54.5839 40.8093C60.7488 42.6935 66.87 44.5694 73 46.437C73 52.8435 73 59.2333 73 65.6483C66.87 65.6483 60.7401 65.6483 54.5839 65.6483C54.5839 57.3909 54.5839 49.1252 54.5839 40.8093ZM62.3491 60.2634C62.3491 58.8648 62.3578 57.5417 62.3316 56.2185C62.3316 56.1012 62.1392 55.9337 61.9993 55.8835C60.3903 55.3056 58.7813 54.7529 57.1635 54.1918C57.0236 54.1416 56.8749 54.1081 56.6913 54.0495C56.6913 55.5736 56.6826 57.0224 56.7088 58.4712C56.7088 58.5801 56.8837 58.7392 57.0149 58.7811C57.4958 58.9402 57.9943 59.0575 58.4839 59.1915C59.7432 59.5432 61.0111 59.8949 62.3491 60.2634ZM62.3403 52.0982C62.3403 50.6996 62.3491 49.3597 62.3228 48.0281C62.3228 47.9193 62.1305 47.7685 61.9993 47.7183C60.3815 47.1404 58.7463 46.5793 57.1198 46.0183C56.9886 45.9764 56.8575 45.9513 56.6826 45.901C56.6826 47.4168 56.6738 48.8656 56.7001 50.3144C56.7001 50.4149 56.8924 50.574 57.0236 50.6075C58.1254 50.9257 59.2272 51.2272 60.3291 51.5371C60.9849 51.7213 61.632 51.8972 62.3403 52.0982ZM69.4322 54.0746C69.4322 52.7263 69.4235 51.4617 69.4409 50.1972C69.4497 49.8957 69.336 49.7617 69.0474 49.6612C67.4209 49.1085 65.7944 48.5306 64.1679 47.9695C64.0543 47.9277 63.9318 47.9109 63.7744 47.869C63.7744 49.3765 63.7657 50.8253 63.7832 52.2741C63.7832 52.3746 63.9406 52.5337 64.0543 52.5672C64.5527 52.7263 65.0599 52.8603 65.5583 52.9943C66.8263 53.346 68.0943 53.6977 69.4322 54.0746ZM69.4322 62.2314C69.4322 60.8831 69.4147 59.6186 69.4409 58.354C69.4497 58.0358 69.3185 57.9185 69.0387 57.8264C67.9281 57.4495 66.8263 57.0559 65.7157 56.6791C65.0949 56.4613 64.4653 56.252 63.8182 56.0342C63.7919 56.1347 63.7744 56.185 63.7744 56.2436C63.7744 57.6338 63.7657 59.0323 63.7832 60.4225C63.7832 60.5398 63.9668 60.7156 64.1067 60.7575C64.8937 61.0004 65.6895 61.2097 66.4853 61.4275C67.4559 61.6787 68.4091 61.9467 69.4322 62.2314Z" fill="white"/>
</g>
<defs>
<clipPath id="clip0_1_987">
<rect width="73" height="66" fill="white"/>
</clipPath>
</defs>
</svg>
