<svg width="93" height="23" viewBox="0 0 93 23" fill="none" xmlns="http://www.w3.org/2000/svg">
<rect width="93" height="23" rx="5" fill="#FFF4DE"/>
<path opacity="0.8" d="M13.1141 14.5V6.712H18.1411V7.966H14.5001V10.012H17.9321V11.266H14.5001V14.5H13.1141ZM21.9165 9.088C23.5335 9.088 24.7875 10.21 24.7875 11.86C24.7875 13.51 23.5335 14.632 21.9165 14.632C20.2995 14.632 19.0455 13.51 19.0455 11.86C19.0455 10.221 20.3105 9.088 21.9165 9.088ZM20.3655 11.86C20.3655 12.773 21.0255 13.444 21.9165 13.444C22.8405 13.444 23.4675 12.74 23.4675 11.86C23.4675 10.947 22.8075 10.276 21.9055 10.276C21.0255 10.276 20.3655 10.958 20.3655 11.86ZM26.0234 14.5V9.22H27.3434V10.056H27.3654C27.6514 9.451 28.2344 9.088 28.9274 9.088C29.1254 9.088 29.2244 9.121 29.4004 9.165V10.441C29.1474 10.375 28.9604 10.342 28.7624 10.342C27.7614 10.342 27.3434 11.046 27.3434 11.75V14.5H26.0234ZM32.7124 9.088C34.3844 9.088 35.1874 10.353 35.1874 11.948V12.322H31.1614C31.2494 13.081 31.8214 13.576 32.5804 13.576C33.1744 13.576 33.6254 13.323 33.9994 12.861L34.9454 13.576C34.3734 14.28 33.6144 14.632 32.7124 14.632C31.0954 14.632 29.8414 13.51 29.8414 11.86C29.8414 10.221 31.0954 9.088 32.7124 9.088ZM31.1614 11.332H33.8674C33.8564 10.507 33.2954 10.078 32.5144 10.078C31.7334 10.078 31.2604 10.584 31.1614 11.332ZM37.0928 6.635C37.5768 6.635 37.9508 6.976 37.9508 7.427C37.9508 7.9 37.5658 8.219 37.0928 8.219C36.6198 8.219 36.2568 7.856 36.2568 7.427C36.2568 6.998 36.6198 6.635 37.0928 6.635ZM37.7638 9.22V14.5H36.4438V9.22H37.7638ZM41.6113 9.088C42.3483 9.088 43.0413 9.363 43.4373 10.012H43.4593V9.22H44.7133V14.071C44.7133 15.974 43.7233 17.14 41.7323 17.14C40.7423 17.14 39.8513 16.92 39.1143 16.271L39.9062 15.193C40.4343 15.677 40.9953 15.952 41.7213 15.952C42.9533 15.952 43.3933 15.314 43.3933 14.137V13.796H43.3713C42.9643 14.313 42.3263 14.566 41.6443 14.566C40.0933 14.566 39.0153 13.389 39.0153 11.86C39.0153 10.276 40.0053 9.088 41.6113 9.088ZM40.3353 11.849C40.3353 12.729 41.0393 13.378 41.8863 13.378C42.8103 13.378 43.4593 12.751 43.4593 11.827C43.4593 10.859 42.8213 10.276 41.8863 10.276C40.9733 10.276 40.3353 10.914 40.3353 11.849ZM47.528 14.5H46.208V9.22H47.462V10.067H47.484C47.803 9.374 48.408 9.088 49.101 9.088C50.674 9.088 51.026 10.309 51.026 11.123V14.5H49.706V11.761C49.706 10.705 49.365 10.276 48.738 10.276C47.891 10.276 47.528 10.892 47.528 11.596V14.5ZM55.9333 14.5V6.712H58.0453L60.1243 12.168L62.2253 6.712H64.3153V14.5H62.9953V8.032H62.9733L60.6083 14.5H59.6403L57.2753 8.032H57.2533V14.5H55.9333ZM67.4698 14.5H66.0838V6.712H67.9208L71.6938 12.498H71.7158V6.712H73.1018V14.5H71.3418L67.4918 8.527H67.4698V14.5ZM78.5347 6.514C79.6457 6.514 80.5257 6.91 81.2627 7.746L80.1847 8.538C79.7337 8.054 79.2277 7.768 78.5457 7.768C76.9507 7.768 75.8727 9 75.8727 10.551C75.8727 12.157 76.9067 13.444 78.5457 13.444C79.2827 13.444 79.8547 13.059 80.2947 12.498L81.4387 13.312C80.7677 14.258 79.6787 14.698 78.5347 14.698C76.1367 14.698 74.4207 13.059 74.4207 10.639C74.4207 8.219 76.0487 6.514 78.5347 6.514Z" fill="#EAA00C"/>
</svg>
