<svg width="189" height="30" viewBox="0 0 189 30" fill="none" xmlns="http://www.w3.org/2000/svg">
<path d="M21.6656 3.479V29.4911H16.4482V18.4229H5.30547V29.4911H0.0881348V3.479H5.30547V14.1745H16.4482V3.479H21.6656Z" fill="url(#paint0_linear_0_1529)"/>
<path d="M28.2245 5.5291C27.6282 4.93284 27.3301 4.22477 27.3301 3.36763C27.3301 2.5105 27.6282 1.76517 28.2245 1.20617C28.8207 0.609899 29.6033 0.311768 30.535 0.311768C31.4667 0.311768 32.212 0.609899 32.8455 1.20617C33.4418 1.80243 33.7399 2.5105 33.7399 3.36763C33.7399 4.22477 33.4418 4.9701 32.8455 5.5291C32.2493 6.12537 31.4667 6.4235 30.535 6.4235C29.6033 6.38623 28.858 6.0881 28.2245 5.5291ZM33.1064 8.84583V29.4916H27.8891V8.84583H33.1064Z" fill="url(#paint1_linear_0_1529)"/>
<path d="M47.1557 9.47854C48.2364 8.84501 49.4662 8.54688 50.8824 8.54688V14.0251H49.5035C47.8638 14.0251 46.634 14.3977 45.7769 15.1803C44.957 15.9629 44.547 17.3045 44.547 19.2051V29.4907H39.3297V8.845H44.547V12.0499C45.2178 10.9692 46.075 10.1121 47.1557 9.47854Z" fill="url(#paint2_linear_0_1529)"/>
<path d="M74.5098 20.7331H59.4168C59.5286 22.2237 60.0503 23.379 60.982 24.2361C61.9136 25.0933 63.0316 25.5032 64.3732 25.5032C66.3111 25.5032 67.69 24.6833 68.5098 23.0063H74.1371C73.5408 24.9815 72.3856 26.6212 70.7086 27.9255C69.0316 29.1926 66.9446 29.8261 64.485 29.8261C62.5099 29.8261 60.7211 29.3789 59.1559 28.5218C57.5907 27.6274 56.3609 26.3976 55.4665 24.7951C54.5721 23.1927 54.1622 21.3293 54.1622 19.2051C54.1622 17.0809 54.6094 15.1803 55.4665 13.5779C56.3236 11.9754 57.5534 10.7083 59.1186 9.85121C60.6838 8.99408 62.4726 8.54688 64.5223 8.54688C66.4974 8.54688 68.249 8.95681 69.8142 9.81394C71.3794 10.6711 72.5719 11.8636 73.429 13.4288C74.2862 14.994 74.7334 16.7828 74.7334 18.7579C74.6588 19.466 74.5843 20.1368 74.5098 20.7331ZM69.2552 17.23C69.2179 15.8884 68.7334 14.8077 67.8018 14.0251C66.8701 13.2052 65.7148 12.7953 64.336 12.7953C63.0316 12.7953 61.9509 13.1679 61.0565 13.9505C60.1621 14.7331 59.6404 15.8139 59.4168 17.23H69.2552Z" fill="url(#paint3_linear_0_1529)"/>
<path d="M108.161 8.84521L102.124 29.491H96.4968L92.7329 15.0688L88.9689 29.491H83.3044L77.2299 8.84521H82.5218L86.1739 24.5718L90.1242 8.84521H95.6397L99.5154 24.5345L103.168 8.84521H108.161Z" fill="url(#paint4_linear_0_1529)"/>
<path d="M111.963 13.5415C112.783 11.939 113.938 10.672 115.354 9.81483C116.77 8.9577 118.373 8.5105 120.124 8.5105C121.652 8.5105 123.031 8.80863 124.186 9.44217C125.341 10.0757 126.273 10.8583 126.981 11.79V8.8459H132.236V29.4916H126.981V26.473C126.31 27.442 125.379 28.2618 124.186 28.8954C122.994 29.5289 121.652 29.827 120.087 29.827C118.335 29.827 116.77 29.3798 115.317 28.4854C113.901 27.591 112.745 26.324 111.925 24.6842C111.106 23.0445 110.658 21.1812 110.658 19.0942C110.733 17.0073 111.143 15.1812 111.963 13.5415ZM126.236 15.9266C125.751 15.0322 125.081 14.3241 124.223 13.8396C123.366 13.3552 122.472 13.0943 121.503 13.0943C120.534 13.0943 119.64 13.3179 118.82 13.8024C118 14.2868 117.329 14.9576 116.845 15.8893C116.323 16.7837 116.062 17.8644 116.062 19.0942C116.062 20.324 116.323 21.442 116.845 22.3737C117.366 23.3054 118.037 24.0134 118.857 24.5352C119.677 25.0196 120.571 25.2805 121.54 25.2805C122.509 25.2805 123.404 25.0569 124.261 24.5352C125.118 24.0507 125.789 23.3426 126.273 22.4482C126.758 21.5538 127.018 20.4731 127.018 19.1688C127.018 17.8644 126.72 16.821 126.236 15.9266Z" fill="url(#paint5_linear_0_1529)"/>
<path d="M143.639 1.91382V29.4912H138.422V1.91382H143.639Z" fill="url(#paint6_linear_0_1529)"/>
<path d="M162.086 29.4912L155.08 20.6962V29.4912H149.863V1.91382H155.08V17.6031L162.012 8.84542H168.794L159.701 19.2056L168.869 29.4912H162.086Z" fill="url(#paint7_linear_0_1529)"/>
<path d="M176.061 28.9326C174.72 28.3364 173.639 27.4792 172.856 26.4358C172.074 25.3923 171.627 24.237 171.589 22.97H176.844C176.956 23.7526 177.328 24.4234 178.037 24.9451C178.707 25.4668 179.564 25.7277 180.571 25.7277C181.577 25.7277 182.359 25.5414 182.918 25.1314C183.477 24.7215 183.776 24.237 183.776 23.6035C183.776 22.9327 183.44 22.411 182.732 22.0756C182.061 21.7402 180.943 21.3675 179.453 20.9948C177.925 20.6222 176.658 20.2495 175.651 19.8396C174.682 19.4296 173.825 18.8334 173.117 18.0135C172.409 17.1936 172.074 16.0756 172.074 14.6968C172.074 13.5415 172.409 12.498 173.043 11.5664C173.714 10.6347 174.645 9.88936 175.875 9.33036C177.105 8.77136 178.558 8.5105 180.198 8.5105C182.658 8.5105 184.633 9.10676 186.086 10.3366C187.54 11.5664 188.359 13.2434 188.508 15.3303H183.515C183.44 14.5104 183.105 13.8396 182.471 13.3552C181.875 12.8707 181.055 12.6098 180.049 12.6098C179.117 12.6098 178.372 12.7962 177.85 13.1316C177.328 13.467 177.105 13.9514 177.105 14.585C177.105 15.293 177.44 15.8148 178.148 16.1874C178.856 16.5601 179.937 16.9328 181.391 17.3054C182.881 17.6781 184.111 18.0508 185.08 18.4607C186.049 18.8706 186.869 19.4669 187.614 20.324C188.322 21.1439 188.695 22.2619 188.732 23.6408C188.732 24.8333 188.397 25.914 187.726 26.8457C187.055 27.7774 186.123 28.5227 184.894 29.0817C183.664 29.6034 182.21 29.8643 180.571 29.8643C178.894 29.827 177.403 29.5289 176.061 28.9326Z" fill="url(#paint8_linear_0_1529)"/>
<defs>
<linearGradient id="paint0_linear_0_1529" x1="10.8768" y1="3.479" x2="10.8768" y2="29.4911" gradientUnits="userSpaceOnUse">
<stop stop-color="#E83251"/>
<stop offset="1" stop-color="#E9456D"/>
</linearGradient>
<linearGradient id="paint1_linear_0_1529" x1="30.535" y1="0.311768" x2="30.535" y2="29.4916" gradientUnits="userSpaceOnUse">
<stop stop-color="#E83251"/>
<stop offset="1" stop-color="#E9456D"/>
</linearGradient>
<linearGradient id="paint2_linear_0_1529" x1="45.106" y1="8.54687" x2="45.106" y2="29.4907" gradientUnits="userSpaceOnUse">
<stop stop-color="#E83251"/>
<stop offset="1" stop-color="#E9456D"/>
</linearGradient>
<linearGradient id="paint3_linear_0_1529" x1="64.4478" y1="8.54687" x2="64.4478" y2="29.8261" gradientUnits="userSpaceOnUse">
<stop stop-color="#E83251"/>
<stop offset="1" stop-color="#E9456D"/>
</linearGradient>
<linearGradient id="paint4_linear_0_1529" x1="92.6956" y1="8.84521" x2="92.6956" y2="29.491" gradientUnits="userSpaceOnUse">
<stop stop-color="#E83251"/>
<stop offset="1" stop-color="#E9456D"/>
</linearGradient>
<linearGradient id="paint5_linear_0_1529" x1="121.447" y1="8.5105" x2="121.447" y2="29.827" gradientUnits="userSpaceOnUse">
<stop stop-color="#E83251"/>
<stop offset="1" stop-color="#E9456D"/>
</linearGradient>
<linearGradient id="paint6_linear_0_1529" x1="141.031" y1="1.91382" x2="141.031" y2="29.4912" gradientUnits="userSpaceOnUse">
<stop stop-color="#E83251"/>
<stop offset="1" stop-color="#E9456D"/>
</linearGradient>
<linearGradient id="paint7_linear_0_1529" x1="159.366" y1="1.91382" x2="159.366" y2="29.4912" gradientUnits="userSpaceOnUse">
<stop stop-color="#E83251"/>
<stop offset="1" stop-color="#E9456D"/>
</linearGradient>
<linearGradient id="paint8_linear_0_1529" x1="180.161" y1="8.5105" x2="180.161" y2="29.8643" gradientUnits="userSpaceOnUse">
<stop stop-color="#E83251"/>
<stop offset="1" stop-color="#E9456D"/>
</linearGradient>
</defs>
</svg>
