<svg width="14" height="17" viewBox="0 0 14 17" fill="none" xmlns="http://www.w3.org/2000/svg">
<path d="M6.625 8.87497C7.86764 8.87497 8.875 7.86761 8.875 6.62497C8.875 5.38233 7.86764 4.37497 6.625 4.37497C5.38236 4.37497 4.375 5.38233 4.375 6.62497C4.375 7.86761 5.38236 8.87497 6.625 8.87497Z" stroke="#080F5E" stroke-width="2" stroke-linecap="round" stroke-linejoin="round"/>
<path d="M12.25 6.62497C12.25 11.6875 6.625 15.625 6.625 15.625C6.625 15.625 1 11.6875 1 6.62497C1 5.13313 1.59263 3.70239 2.64752 2.64749C3.70242 1.5926 5.13316 0.999969 6.625 0.999969C8.11684 0.999969 9.54758 1.5926 10.6025 2.64749C11.6574 3.70239 12.25 5.13313 12.25 6.62497V6.62497Z" stroke="#080F5E" stroke-width="2" stroke-linecap="round" stroke-linejoin="round"/>
</svg>
