<svg width="20" height="21" viewBox="0 0 20 21" fill="none" xmlns="http://www.w3.org/2000/svg">
<path d="M16 5.56055H14.5V4.81055C14.5 4.21381 14.2629 3.64151 13.841 3.21956C13.419 2.7976 12.8467 2.56055 12.25 2.56055H9.25C8.65326 2.56055 8.08097 2.7976 7.65901 3.21956C7.23705 3.64151 7 4.21381 7 4.81055V5.56055H5.5C4.90326 5.56055 4.33097 5.7976 3.90901 6.21956C3.48705 6.64151 3.25 7.21381 3.25 7.81055V15.3105C3.25 15.9073 3.48705 16.4796 3.90901 16.9015C4.33097 17.3235 4.90326 17.5605 5.5 17.5605H16C16.5967 17.5605 17.169 17.3235 17.591 16.9015C18.0129 16.4796 18.25 15.9073 18.25 15.3105V7.81055C18.25 7.21381 18.0129 6.64151 17.591 6.21956C17.169 5.7976 16.5967 5.56055 16 5.56055ZM8.5 4.81055C8.5 4.61163 8.57902 4.42087 8.71967 4.28022C8.86032 4.13956 9.05109 4.06055 9.25 4.06055H12.25C12.4489 4.06055 12.6397 4.13956 12.7803 4.28022C12.921 4.42087 13 4.61163 13 4.81055V5.56055H8.5V4.81055ZM16.75 15.3105C16.75 15.5095 16.671 15.7002 16.5303 15.8409C16.3897 15.9815 16.1989 16.0605 16 16.0605H5.5C5.30109 16.0605 5.11032 15.9815 4.96967 15.8409C4.82902 15.7002 4.75 15.5095 4.75 15.3105V7.81055C4.75 7.61163 4.82902 7.42087 4.96967 7.28022C5.11032 7.13956 5.30109 7.06055 5.5 7.06055H16C16.1989 7.06055 16.3897 7.13956 16.5303 7.28022C16.671 7.42087 16.75 7.61163 16.75 7.81055V15.3105ZM15.25 13.8105C15.25 14.0095 15.171 14.2002 15.0303 14.3409C14.8897 14.4815 14.6989 14.5605 14.5 14.5605H7C6.80109 14.5605 6.61032 14.4815 6.46967 14.3409C6.32902 14.2002 6.25 14.0095 6.25 13.8105C6.25 13.6116 6.32902 13.4209 6.46967 13.2802C6.61032 13.1396 6.80109 13.0605 7 13.0605H14.5C14.6989 13.0605 14.8897 13.1396 15.0303 13.2802C15.171 13.4209 15.25 13.6116 15.25 13.8105Z" fill="white"/>
</svg>
