<svg width="116" height="119" viewBox="0 0 116 119" fill="none" xmlns="http://www.w3.org/2000/svg">
<path d="M115.839 12.7296C115.839 16.329 114.601 19.3138 112.126 21.7719C109.651 24.2301 106.645 25.4591 103.109 25.4591C99.5733 25.4591 96.5677 24.2301 94.0925 21.7719C91.6173 19.3138 90.3797 16.2412 90.3797 12.7296C90.3797 9.21796 91.6173 6.1453 94.0925 3.68718C96.5677 1.22906 99.5733 0 103.109 0C106.645 0 109.651 1.22906 112.126 3.68718C114.601 6.1453 115.839 9.21796 115.839 12.7296Z" fill="url(#paint0_linear_1_370)"/>
<path d="M6.30989 111.966C4.61412 110.183 4.70338 107.42 6.4884 105.726L52.3635 62.3187C54.1485 60.6251 56.9153 60.7143 58.6111 62.4969C60.3068 64.2796 60.2176 67.0427 58.4325 68.7362L12.5575 112.144C10.7724 113.748 8.00566 113.659 6.30989 111.966Z" fill="url(#paint1_linear_1_370)"/>
<path d="M35.6919 117.107C33.944 115.39 33.944 112.587 35.6045 110.779L61.2996 84.1094C62.9602 82.3013 65.6696 82.3013 67.4175 84.019C69.1655 85.7367 69.1655 88.5393 67.5049 90.3474L41.8098 117.017C40.1492 118.825 37.4399 118.825 35.6919 117.107Z" fill="url(#paint2_linear_1_370)"/>
<path d="M7.5833 86.5114C5.90087 84.7191 5.9894 81.941 7.67183 80.2383L34.5908 54.6975C36.3618 52.9947 39.1068 53.0844 40.7892 54.7871C42.4716 56.5794 42.3831 59.3575 40.7007 61.0603L13.7817 86.6011C12.0993 88.3038 9.26573 88.2142 7.5833 86.5114Z" fill="url(#paint3_linear_1_370)"/>
<path d="M95.7341 98.0176C95.1094 97.9285 94.5739 97.8394 94.0384 97.7503C93.2352 97.572 92.4319 97.4829 91.718 97.3046C91.5395 97.3046 91.2717 97.3046 91.0932 97.2155C90.29 97.1264 89.4868 96.9482 88.6836 96.859C87.6126 96.6808 86.4524 96.5025 85.3814 96.3243C84.4889 96.1461 83.6857 95.9678 82.7932 95.8787C81.99 95.7004 81.0975 95.6113 80.2943 95.5222C80.0266 95.5222 79.8481 95.4331 79.8481 95.0766C79.8481 94.3636 79.8481 93.6507 79.8481 92.8486C79.8481 91.6009 79.7588 90.264 79.6696 89.0163C79.5803 87.9469 79.5803 86.9665 79.4911 85.8971C79.4018 85.095 79.4019 84.2037 79.3126 83.4016C79.2234 82.5104 79.1341 81.6192 78.9556 80.728C78.8663 80.015 78.7771 79.2129 78.5986 78.4999C78.4201 77.5196 78.2416 76.5393 78.0631 75.5589C77.8846 74.5786 77.6169 73.5982 77.3492 72.6179C77.0814 71.7267 76.9029 70.7464 76.6352 69.8551C76.3674 69.1422 76.0997 68.4292 75.8319 67.6271C75.6534 67.0924 75.475 66.4685 75.2072 65.9338C74.9395 65.3099 74.6717 64.6861 74.404 64.0622C74.047 63.3493 73.7793 62.6363 73.4223 61.8342C73.2438 61.4777 73.0653 61.1212 72.7975 60.7647C72.4406 60.1409 72.0836 59.517 71.6373 58.8932C71.3696 58.4475 71.0126 58.0019 70.6556 57.5563C69.9416 56.7542 69.3169 55.863 68.6029 55.1501C68.2459 54.7044 67.7104 54.4371 67.3535 54.0806C66.818 53.635 66.3717 53.1002 65.8363 52.7438C64.9438 52.0308 63.9621 51.3178 62.9803 50.7831C62.1771 50.3375 61.3739 49.8918 60.4814 49.4462C59.6782 49.0898 58.875 48.8224 58.0717 48.4659C57.3578 48.1986 56.733 47.9312 56.0191 47.6638C55.4836 47.4856 54.9481 47.3965 54.4126 47.2182C53.7879 47.04 53.1632 46.8617 52.4492 46.6835C51.5567 46.5052 50.7535 46.2379 49.861 46.0596C49.3255 45.9705 48.7008 45.8814 48.1653 45.7923C47.4513 45.7031 46.6481 45.5249 45.9341 45.4358C44.5954 45.2575 43.3459 45.1684 42.0072 45.0793C40.5793 44.9902 39.2406 44.901 37.8126 44.901C35.7599 44.8119 33.7072 44.8119 31.6546 44.8119C30.1373 44.8119 28.5309 44.901 27.0137 44.9902C26.032 45.0793 25.0503 45.0793 23.9793 45.1684C23.4438 45.2575 22.9083 45.3466 22.3728 45.3466C22.2836 45.3466 22.1051 45.2575 22.1051 45.1684C21.7481 44.0989 21.4804 43.0295 21.2126 41.96C20.8557 40.8014 20.4987 39.6429 20.2309 38.4843C19.9632 37.5931 19.6954 36.7018 19.5169 35.8997C19.2492 35.0085 18.9814 34.1173 18.7137 33.2261C18.446 32.424 18.2675 31.711 17.9997 30.9089C17.9105 30.7307 17.9105 30.5524 17.8212 30.3742C18.089 30.2851 18.446 30.1959 18.7137 30.0177C19.2492 29.8395 19.7847 29.5721 20.3202 29.3939C20.8557 29.2156 21.4804 29.0374 22.0159 28.77C22.8191 28.5026 23.6223 28.2353 24.4255 27.8788C24.8718 27.7005 25.2288 27.6114 25.675 27.5223C26.4782 27.2549 27.2814 26.9876 28.0847 26.8093C28.7094 26.6311 29.3341 26.3637 29.9589 26.1855C30.2266 26.0963 30.5836 26.0072 30.8513 25.9181C31.5653 25.7399 32.3685 25.4725 33.0825 25.2942C33.5287 25.2051 33.975 25.116 34.4212 25.0269C35.1352 24.8486 35.7599 24.6704 36.4739 24.4922C37.0094 24.403 37.4556 24.3139 37.9911 24.2248C38.6158 24.0465 39.2406 23.9574 39.8653 23.7792C40.1331 23.6901 40.4008 23.6901 40.6685 23.6009C41.561 23.4227 42.3642 23.2444 43.2567 23.0662C43.4352 23.0662 43.7029 23.0662 43.8814 22.9771C44.7739 22.7988 45.6664 22.6206 46.5589 22.5315C46.8266 22.5315 47.0943 22.4423 47.2728 22.4423C48.3438 22.3532 49.504 22.2641 50.575 22.0859C51.9137 21.9076 53.3417 21.8185 54.6804 21.7294C57.09 21.7294 59.4997 21.6403 61.9094 21.6403C62.8911 21.6403 63.9621 21.7294 64.9438 21.8185C65.8363 21.9076 66.7287 21.9967 67.6212 22.175C68.2459 22.2641 68.9599 22.3532 69.5846 22.5315C70.6556 22.7988 71.7266 23.0662 72.7083 23.3336C73.5115 23.5118 74.3147 23.6901 75.0287 23.9574C75.7427 24.1357 76.3674 24.403 77.0814 24.6704C77.6169 24.8486 78.1524 25.116 78.6879 25.2942C79.0449 25.3834 79.3126 25.5616 79.6696 25.7399C80.5621 26.1855 81.4545 26.6311 82.2578 27.0767C82.9717 27.4332 83.5965 27.8788 84.3104 28.3244C85.0244 28.77 85.6491 29.2156 86.2739 29.7503C86.7201 30.1068 87.0771 30.4633 87.5233 30.8198C87.9696 31.2654 88.5051 31.6219 88.9513 31.9784C89.3975 32.3349 89.7545 32.7805 90.2008 33.2261C90.8255 33.9391 91.4502 34.652 91.9857 35.365C92.6997 36.3453 93.5029 37.3257 94.1276 38.306C94.6631 39.1972 95.1986 40.1776 95.6448 41.0688C96.0018 41.7818 96.4481 42.5839 96.7158 43.2968C97.0728 44.0989 97.3405 44.9902 97.6975 45.8814C97.9653 46.6835 98.233 47.3964 98.5008 48.1985C98.6793 48.7333 98.7685 49.268 98.947 49.8027C99.1255 50.4266 99.304 51.0504 99.3932 51.6743C99.4825 52.0308 99.5717 52.4764 99.5717 52.8329C99.661 53.635 99.8395 54.5262 99.9287 55.3283C100.107 56.576 100.196 57.9128 100.286 59.2496C100.643 61.9233 100.553 64.5078 100.553 67.1815C100.553 68.0727 100.464 68.9639 100.375 69.9442C100.286 70.8355 100.286 71.7267 100.196 72.6179C100.107 73.42 100.018 74.2221 99.9287 75.0242C99.8395 75.8263 99.7502 76.6284 99.661 77.4305C99.5717 78.3217 99.3932 79.1238 99.2147 80.015C99.1255 80.4606 99.1255 80.9954 99.0362 81.441C98.8577 82.2431 98.7685 82.956 98.59 83.7581C98.5007 84.2037 98.4115 84.6493 98.3223 85.095C98.1438 86.0753 97.876 87.0556 97.6975 87.9469C97.519 88.5707 97.4298 89.2837 97.2513 89.9075C97.0728 90.4423 96.9835 91.0661 96.805 91.6009C96.6265 92.2247 96.5373 92.7594 96.3588 93.3833C96.0911 94.2745 95.8233 95.2549 95.5556 96.1461C95.4663 96.4134 95.3771 96.7699 95.2879 97.1264C95.9126 97.4829 95.8233 97.7502 95.7341 98.0176Z" fill="url(#paint4_linear_1_370)"/>
<path d="M15.912 30.551C17.3668 35.7648 18.9125 40.9786 20.3673 46.1925C20.1854 46.1925 20.0036 46.2856 19.8218 46.2856C18.8216 46.4718 17.7305 46.5649 16.7303 46.7511C15.9119 46.8442 15.0936 47.0304 14.2753 47.1235C13.2751 47.3097 12.3659 47.4959 11.3657 47.6821C11.0929 47.7752 10.8201 47.7752 10.4564 47.7752C9.27439 47.9614 8.1833 48.1476 7.00127 48.3338C6.63757 48.4269 6.18292 48.3338 5.81922 48.2407C5.3646 48.1476 4.90999 48.0545 4.36444 47.9614C3.54611 47.6821 2.72778 47.2166 2.0913 46.658C1.3639 46.0062 0.818329 45.1683 0.454627 44.2373C0.0909254 43.3994 0 42.6545 0 41.7235C0 40.3269 0.454622 39.1166 1.27295 37.9993C1.72758 37.4407 2.18222 36.8821 2.90963 36.5097C3.72795 36.1373 4.54627 35.5786 5.3646 35.2062C6.27385 34.7407 7.1831 34.3683 8.09236 33.9028C9.00161 33.4372 9.91087 33.0648 10.8201 32.6924C11.7294 32.32 12.5477 31.9476 13.457 31.4821C14.2753 31.2028 15.0936 30.9234 15.912 30.551Z" fill="url(#paint5_linear_1_370)"/>
<path d="M79.5492 96.7444C79.9085 96.8359 80.3576 96.8359 80.7169 96.9275C81.6151 97.1105 82.6031 97.2021 83.5013 97.3852C84.7588 97.5682 85.9265 97.7513 87.184 98.0259C88.1721 98.209 89.1601 98.392 90.0583 98.5751C90.9565 98.7582 91.9445 98.8497 92.8428 99.0328C93.6511 99.1243 94.3697 99.3074 95.1781 99.3989C95.3578 99.3989 95.5374 99.582 95.4476 99.8566C95.1781 100.68 94.9086 101.504 94.6392 102.328C94.4595 102.877 94.1901 103.427 94.0104 103.976C93.9206 104.25 93.8308 104.433 93.741 104.708C93.4715 105.532 93.202 106.356 92.8428 107.18C92.5733 107.912 92.3038 108.644 92.0344 109.376C91.7649 110.017 91.5852 110.658 91.3158 111.299C90.9565 112.397 90.4176 113.404 89.5194 114.136C88.711 114.869 87.8128 115.326 86.8247 115.601C86.0163 115.876 85.208 115.876 84.3996 115.784C83.681 115.692 82.9624 115.509 82.3337 115.143C81.3456 114.594 80.4474 113.953 79.9085 112.946C79.4594 112.214 79.1001 111.482 79.0103 110.566C78.7408 109.193 79.1899 107.82 79.1001 106.447C79.1001 106.356 79.1001 106.356 79.1001 106.264C79.1899 104.983 79.1899 103.701 79.2797 102.42C79.3696 100.864 79.4594 99.3074 79.5492 97.6597C79.3696 97.3851 79.4594 97.1105 79.5492 96.7444Z" fill="url(#paint6_linear_1_370)"/>
<defs>
<linearGradient id="paint0_linear_1_370" x1="103.109" y1="0" x2="103.109" y2="25.4591" gradientUnits="userSpaceOnUse">
<stop stop-color="#E83251"/>
<stop offset="1" stop-color="#E9456D"/>
</linearGradient>
<linearGradient id="paint1_linear_1_370" x1="32.4605" y1="61.1023" x2="32.4605" y2="113.293" gradientUnits="userSpaceOnUse">
<stop stop-color="#E83251"/>
<stop offset="1" stop-color="#E9456D"/>
</linearGradient>
<linearGradient id="paint2_linear_1_370" x1="51.5547" y1="82.7418" x2="51.5547" y2="118.385" gradientUnits="userSpaceOnUse">
<stop stop-color="#E83251"/>
<stop offset="1" stop-color="#E9456D"/>
</linearGradient>
<linearGradient id="paint3_linear_1_370" x1="24.1862" y1="53.4644" x2="24.1862" y2="87.8342" gradientUnits="userSpaceOnUse">
<stop stop-color="#E83251"/>
<stop offset="1" stop-color="#E9456D"/>
</linearGradient>
<linearGradient id="paint4_linear_1_370" x1="59.1923" y1="21.6403" x2="59.1923" y2="98.0176" gradientUnits="userSpaceOnUse">
<stop stop-color="#E83251"/>
<stop offset="1" stop-color="#E9456D"/>
</linearGradient>
<linearGradient id="paint5_linear_1_370" x1="10.1836" y1="30.551" x2="10.1836" y2="48.3724" gradientUnits="userSpaceOnUse">
<stop stop-color="#E83251"/>
<stop offset="1" stop-color="#E9456D"/>
</linearGradient>
<linearGradient id="paint6_linear_1_370" x1="87.1972" y1="96.7444" x2="87.1972" y2="115.839" gradientUnits="userSpaceOnUse">
<stop stop-color="#E83251"/>
<stop offset="1" stop-color="#E9456D"/>
</linearGradient>
</defs>
</svg>
