<svg width="71" height="72" viewBox="0 0 71 72" fill="none" xmlns="http://www.w3.org/2000/svg">
<path d="M70.1613 7.71003C70.1613 9.89011 69.4117 11.698 67.9125 13.1868C66.4133 14.6756 64.5929 15.4201 62.4512 15.4201C60.3096 15.4201 58.4891 14.6756 56.99 13.1868C55.4908 11.698 54.7412 9.83693 54.7412 7.71003C54.7412 5.58312 55.4908 3.72208 56.99 2.23325C58.4891 0.744415 60.3096 0 62.4512 0C64.5929 0 66.4133 0.744415 67.9125 2.23325C69.4117 3.72208 70.1613 5.58312 70.1613 7.71003Z" fill="white"/>
<path d="M3.82168 67.8152C2.79459 66.7354 2.84866 65.0619 3.92981 64.0361L31.7154 37.745C32.7965 36.7193 34.4723 36.7733 35.4994 37.853C36.5265 38.9327 36.4724 40.6063 35.3913 41.632L7.60571 67.9231C6.52456 68.8949 4.84878 68.8409 3.82168 67.8152Z" fill="white"/>
<path d="M21.6179 70.9297C20.5592 69.8894 20.5592 68.1919 21.565 67.0968L37.128 50.9436C38.1337 49.8484 39.7747 49.8484 40.8335 50.8888C41.8922 51.9292 41.8921 53.6266 40.8864 54.7218L25.3234 70.875C24.3176 71.9701 22.6766 71.9701 21.6179 70.9297Z" fill="white"/>
<path d="M4.59296 52.3982C3.57395 51.3127 3.62757 49.63 4.64658 48.5987L20.9508 33.1292C22.0235 32.0979 23.6861 32.1522 24.7051 33.1835C25.7241 34.2691 25.6705 35.9517 24.6515 36.983L8.34722 52.4525C7.32821 53.4838 5.61197 53.4296 4.59296 52.3982Z" fill="white"/>
<path d="M57.9843 59.3673C57.6059 59.3134 57.2815 59.2594 56.9572 59.2054C56.4707 59.0975 55.9842 59.0435 55.5518 58.9355C55.4437 58.9355 55.2815 58.9355 55.1734 58.8815C54.6869 58.8276 54.2004 58.7196 53.7139 58.6656C53.0652 58.5577 52.3625 58.4497 51.7139 58.3417C51.1733 58.2338 50.6868 58.1258 50.1463 58.0718C49.6598 57.9639 49.1192 57.9099 48.6327 57.8559C48.4705 57.8559 48.3624 57.802 48.3624 57.586C48.3624 57.1542 48.3624 56.7224 48.3624 56.2366C48.3624 55.4809 48.3084 54.6712 48.2543 53.9155C48.2003 53.2677 48.2003 52.6739 48.1462 52.0262C48.0922 51.5404 48.0922 51.0006 48.0381 50.5148C47.9841 49.975 47.93 49.4352 47.8219 48.8954C47.7678 48.4636 47.7138 47.9777 47.6057 47.5459C47.4975 46.9521 47.3894 46.3584 47.2813 45.7646C47.1732 45.1708 47.0111 44.577 46.8489 43.9833C46.6867 43.4435 46.5786 42.8497 46.4165 42.3099C46.2543 41.8781 46.0921 41.4463 45.9299 40.9605C45.8218 40.6366 45.7137 40.2587 45.5516 39.9348C45.3894 39.557 45.2272 39.1791 45.0651 38.8013C44.8489 38.3694 44.6867 37.9376 44.4705 37.4518C44.3624 37.2359 44.2542 37.02 44.0921 36.804C43.8759 36.4262 43.6596 36.0483 43.3894 35.6705C43.2272 35.4006 43.011 35.1307 42.7948 34.8608C42.3623 34.375 41.9839 33.8352 41.5515 33.4034C41.3353 33.1335 41.0109 32.9715 40.7947 32.7556C40.4704 32.4857 40.2001 32.1618 39.8758 31.9459C39.3352 31.5141 38.7406 31.0822 38.146 30.7584C37.6595 30.4885 37.173 30.2186 36.6325 29.9487C36.146 29.7328 35.6595 29.5708 35.173 29.3549C34.7405 29.193 34.3621 29.031 33.9297 28.8691C33.6054 28.7611 33.281 28.7072 32.9567 28.5992C32.5783 28.4913 32.1999 28.3833 31.7675 28.2753C31.2269 28.1674 30.7404 28.0054 30.1999 27.8975C29.8756 27.8435 29.4972 27.7895 29.1728 27.7355C28.7404 27.6816 28.2539 27.5736 27.8215 27.5196C27.0106 27.4117 26.2539 27.3577 25.443 27.3037C24.5781 27.2497 23.7673 27.1957 22.9024 27.1957C21.6592 27.1418 20.4159 27.1418 19.1726 27.1418C18.2537 27.1418 17.2807 27.1957 16.3618 27.2497C15.7672 27.3037 15.1726 27.3037 14.5239 27.3577C14.1996 27.4117 13.8752 27.4656 13.5509 27.4656C13.4968 27.4656 13.3887 27.4117 13.3887 27.3577C13.1725 26.7099 13.0103 26.0622 12.8482 25.4144C12.632 24.7127 12.4157 24.011 12.2536 23.3092C12.0914 22.7695 11.9292 22.2297 11.8211 21.7439C11.659 21.2041 11.4968 20.6643 11.3346 20.1245C11.1725 19.6387 11.0643 19.2068 10.9022 18.721C10.8481 18.6131 10.8481 18.5051 10.7941 18.3971C10.9562 18.3432 11.1725 18.2892 11.3346 18.1812C11.659 18.0733 11.9833 17.9113 12.3076 17.8034C12.632 17.6954 13.0103 17.5875 13.3347 17.4255C13.8212 17.2636 14.3077 17.1016 14.7942 16.8857C15.0644 16.7778 15.2807 16.7238 15.5509 16.6698C16.0374 16.5079 16.5239 16.3459 17.0104 16.238C17.3888 16.13 17.7672 15.9681 18.1456 15.8601C18.3077 15.8061 18.524 15.7522 18.6861 15.6982C19.1186 15.5902 19.6051 15.4283 20.0375 15.3203C20.3078 15.2663 20.5781 15.2124 20.8483 15.1584C21.2808 15.0504 21.6592 14.9425 22.0916 14.8345C22.4159 14.7805 22.6862 14.7266 23.0105 14.6726C23.3889 14.5646 23.7673 14.5106 24.1457 14.4027C24.3079 14.3487 24.47 14.3487 24.6322 14.2947C25.1728 14.1868 25.6592 14.0788 26.1998 13.9708C26.3079 13.9708 26.4701 13.9708 26.5782 13.9169C27.1187 13.8089 27.6593 13.7009 28.1998 13.647C28.362 13.647 28.5242 13.593 28.6323 13.593C29.2809 13.539 29.9837 13.485 30.6323 13.3771C31.4432 13.2691 32.308 13.2151 33.1189 13.1612C34.5784 13.1612 36.0379 13.1072 37.4973 13.1072C38.092 13.1072 38.7406 13.1612 39.3352 13.2151C39.8758 13.2691 40.4163 13.3231 40.9569 13.431C41.3353 13.485 41.7677 13.539 42.1461 13.647C42.7947 13.8089 43.4434 13.9708 44.038 14.1328C44.5245 14.2407 45.011 14.3487 45.4435 14.5106C45.8759 14.6186 46.2543 14.7805 46.6867 14.9425C47.0111 15.0504 47.3354 15.2124 47.6597 15.3203C47.8759 15.3743 48.0381 15.4823 48.2543 15.5902C48.7949 15.8601 49.3354 16.13 49.8219 16.3999C50.2544 16.6158 50.6327 16.8857 51.0652 17.1556C51.4976 17.4255 51.876 17.6954 52.2544 18.0193C52.5247 18.2352 52.7409 18.4511 53.0112 18.667C53.2815 18.9369 53.6058 19.1528 53.8761 19.3688C54.1463 19.5847 54.3626 19.8546 54.6328 20.1245C55.0112 20.5563 55.3896 20.9881 55.7139 21.42C56.1464 22.0137 56.6329 22.6075 57.0113 23.2013C57.3356 23.7411 57.6599 24.3348 57.9302 24.8746C58.1464 25.3065 58.4167 25.7923 58.5789 26.2241C58.7951 26.7099 58.9572 27.2497 59.1735 27.7895C59.3356 28.2753 59.4978 28.7072 59.66 29.193C59.7681 29.5168 59.8221 29.8407 59.9303 30.1646C60.0384 30.5425 60.1465 30.9203 60.2005 31.2982C60.2546 31.5141 60.3086 31.784 60.3086 31.9999C60.3627 32.4857 60.4708 33.0255 60.5248 33.5113C60.633 34.267 60.687 35.0767 60.7411 35.8864C60.9573 37.5058 60.9032 39.0712 60.9032 40.6906C60.9032 41.2303 60.8492 41.7701 60.7951 42.3639C60.7411 42.9037 60.7411 43.4435 60.687 43.9833C60.633 44.4691 60.5789 44.9549 60.5248 45.4407C60.4708 45.9265 60.4167 46.4123 60.3627 46.8982C60.3086 47.438 60.2005 47.9238 60.0924 48.4636C60.0384 48.7335 60.0383 49.0573 59.9843 49.3272C59.8762 49.813 59.8221 50.2449 59.714 50.7307C59.66 51.0006 59.6059 51.2705 59.5519 51.5404C59.4438 52.1341 59.2816 52.7279 59.1735 53.2677C59.0654 53.6456 59.0113 54.0774 58.9032 54.4553C58.7951 54.7791 58.741 55.157 58.6329 55.4809C58.5248 55.8587 58.4707 56.1826 58.3626 56.5604C58.2005 57.1002 58.0383 57.694 57.8761 58.2338C57.8221 58.3957 57.768 58.6116 57.714 58.8276C58.0924 59.0435 58.0383 59.2054 57.9843 59.3673Z" fill="white"/>
<path d="M9.63754 18.5042C10.5187 21.662 11.4549 24.8199 12.336 27.9778C12.2259 27.9778 12.1158 28.0342 12.0056 28.0342C11.3998 28.147 10.739 28.2034 10.1332 28.3162C9.63754 28.3726 9.1419 28.4854 8.64626 28.5417C8.04047 28.6545 7.48974 28.7673 6.88396 28.8801C6.71874 28.9365 6.55353 28.9365 6.33324 28.9365C5.61731 29.0493 4.95646 29.1621 4.24052 29.2748C4.02024 29.3312 3.74487 29.2748 3.52458 29.2184C3.24922 29.162 2.97388 29.1057 2.64345 29.0493C2.1478 28.8801 1.65216 28.5981 1.26666 28.2598C0.826085 27.8651 0.495645 27.3575 0.275358 26.7936C0.0550716 26.2861 0 25.835 0 25.2711C0 24.4252 0.275355 23.6921 0.771 23.0154C1.04636 22.6771 1.32173 22.3387 1.7623 22.1132C2.25794 21.8876 2.75358 21.5493 3.24922 21.3237C3.79994 21.0417 4.35066 20.8162 4.90137 20.5342C5.45209 20.2523 6.00281 20.0267 6.55352 19.8011C7.10424 19.5756 7.5999 19.35 8.15061 19.0681C8.64626 18.8989 9.14189 18.7297 9.63754 18.5042Z" fill="white"/>
<path d="M48.1814 58.5962C48.3991 58.6516 48.6711 58.6516 48.8887 58.7071C49.4327 58.818 50.0311 58.8734 50.5752 58.9843C51.3368 59.0952 52.0441 59.206 52.8057 59.3724C53.4041 59.4833 54.0025 59.5941 54.5466 59.705C55.0906 59.8159 55.689 59.8714 56.2331 59.9822C56.7227 60.0377 57.1579 60.1486 57.6475 60.204C57.7564 60.204 57.8652 60.3149 57.8108 60.4812C57.6475 60.9802 57.4843 61.4792 57.3211 61.9781C57.2123 62.3108 57.0491 62.6434 56.9403 62.9761C56.8859 63.1424 56.8315 63.2533 56.7771 63.4196C56.6139 63.9186 56.4507 64.4176 56.2331 64.9165C56.0699 65.3601 55.9067 65.8036 55.7434 66.2472C55.5802 66.6353 55.4714 67.0233 55.3082 67.4114C55.0906 68.0767 54.7642 68.6866 54.2202 69.1301C53.7305 69.5737 53.1865 69.8509 52.5881 70.0172C52.0984 70.1835 51.6088 70.1835 51.1192 70.1281C50.684 70.0726 50.2487 69.9617 49.8679 69.74C49.2695 69.4073 48.7255 69.0192 48.3991 68.4094C48.127 67.9658 47.9094 67.5223 47.855 66.9679C47.6918 66.1363 47.9638 65.3046 47.9094 64.473C47.9094 64.4176 47.9094 64.4176 47.9094 64.3621C47.9638 63.5859 47.9638 62.8098 48.0182 62.0336C48.0726 61.0911 48.127 60.1486 48.1814 59.1506C48.0726 58.9843 48.127 58.818 48.1814 58.5962Z" fill="white"/>
</svg>
