<svg width="48" height="49" viewBox="0 0 48 49" fill="none" xmlns="http://www.w3.org/2000/svg">
<rect y="0.560547" width="48" height="48" rx="12" fill="white"/>
<g clip-path="url(#clip0_0_496)">
<path d="M23.5186 8.00098C23.5186 8.83234 23.5186 9.62463 23.5186 10.4169C23.5186 18.8727 23.5186 27.3249 23.5223 35.7807C23.5223 35.9477 23.4814 36.001 23.2995 36.001C18.2677 35.9939 13.236 35.9974 8.20424 35.9974C8.14483 35.9974 8.0817 35.9939 8.00371 35.9903C8.00371 35.9228 8.00371 35.866 8.00371 35.8091C8.00371 32.8247 8.00371 29.8403 8 26.8559C8 26.7138 8.02228 26.6179 8.18196 26.5859C8.23395 26.5753 8.28222 26.5397 8.33421 26.5255C8.47161 26.4936 8.50874 26.4154 8.50874 26.2804C8.50503 24.6923 8.50874 23.1077 8.50132 21.5196C8.50132 21.3526 8.56073 21.2851 8.70927 21.2211C10.3209 20.5461 11.9326 19.8639 13.5442 19.1818C13.5925 19.1605 13.6445 19.1463 13.7262 19.1178C13.7262 20.8729 13.7262 22.6103 13.7262 24.3796C13.9861 24.2801 14.2126 24.1949 14.454 24.106C14.454 25.8683 14.454 27.6056 14.454 29.382C14.5283 29.3394 14.5803 29.3145 14.6285 29.2861C14.8922 29.1227 15.1521 28.9486 15.4232 28.7958C15.5495 28.7212 15.5903 28.6359 15.5903 28.4938C15.5866 25.0298 15.5866 21.5658 15.5866 18.1017C15.5866 16.407 15.5903 14.7159 15.5829 13.0212C15.5829 12.879 15.6349 12.7973 15.7574 12.7263C18.29 11.1843 20.8189 9.63884 23.344 8.09335C23.3886 8.06848 23.4369 8.04361 23.5186 8.00098ZM22.5642 13.7637C22.5122 13.7886 22.4862 13.7992 22.4602 13.8134C21.5839 14.357 20.7038 14.8971 19.8311 15.4442C19.7754 15.4797 19.7383 15.5792 19.7383 15.6503C19.7308 16.2471 19.7345 16.844 19.7345 17.4444C19.7345 17.5297 19.7345 17.615 19.7345 17.7216C19.7902 17.6967 19.8162 17.686 19.8422 17.6718C20.7186 17.1496 21.595 16.6273 22.4639 16.0979C22.5159 16.0659 22.5568 15.9771 22.5568 15.9132C22.5642 15.4229 22.5605 14.9326 22.5605 14.4387C22.5642 14.222 22.5642 14.0053 22.5642 13.7637ZM22.5642 10.0972C22.5011 10.1291 22.4677 10.1433 22.4379 10.1611C21.5653 10.7011 20.6926 11.2376 19.8274 11.7848C19.7754 11.8167 19.742 11.9091 19.7383 11.9731C19.7308 12.6161 19.7345 13.2627 19.7345 13.9094C19.7345 13.952 19.742 13.9946 19.7457 14.0479C19.7791 14.0373 19.7977 14.0337 19.8125 14.0231C20.7 13.4937 21.5839 12.9643 22.4677 12.4314C22.5122 12.4065 22.5568 12.3426 22.5568 12.2928C22.5679 11.5716 22.5642 10.8504 22.5642 10.0972ZM19.7345 21.3952C19.8237 21.3455 19.8831 21.3135 19.9388 21.2815C20.7595 20.7877 21.5801 20.2938 22.4082 19.8035C22.5234 19.736 22.5679 19.6685 22.5679 19.5371C22.5605 18.8869 22.5642 18.2367 22.5642 17.583C22.5642 17.5368 22.5568 17.4942 22.5531 17.4409C22.5234 17.448 22.5048 17.4516 22.4899 17.4587C21.5987 18.0094 20.7038 18.5636 19.8125 19.1178C19.7717 19.1427 19.7383 19.2138 19.7345 19.26C19.7345 19.9634 19.7345 20.6598 19.7345 21.3952ZM22.5642 21.1039C22.5122 21.1288 22.4862 21.1359 22.4602 21.1501C21.5839 21.6937 20.7038 22.2337 19.8311 22.7808C19.7754 22.8164 19.7383 22.9158 19.7383 22.9869C19.7308 23.6264 19.7345 24.2659 19.7345 24.9054C19.7345 24.9481 19.742 24.9943 19.7457 25.0547C19.7902 25.0333 19.8162 25.0227 19.8422 25.0085C20.7186 24.4862 21.5913 23.9639 22.4639 23.431C22.5196 23.3955 22.5605 23.2995 22.5605 23.2285C22.5679 22.6956 22.5642 22.1626 22.5642 21.6297C22.5642 21.4627 22.5642 21.2922 22.5642 21.1039ZM19.7345 28.7247C19.7977 28.6928 19.8274 28.6821 19.8534 28.6679C20.7223 28.1492 21.5913 27.6305 22.4565 27.1011C22.5122 27.0656 22.5568 26.9696 22.5568 26.9021C22.5642 26.2449 22.5605 25.5876 22.5605 24.9339C22.5605 24.8841 22.5531 24.8379 22.5456 24.7811C22.5085 24.7953 22.4937 24.7988 22.4788 24.806C21.5913 25.3531 20.7038 25.9002 19.82 26.4545C19.7717 26.4865 19.7383 26.5682 19.7345 26.6286C19.7271 27.0016 19.7308 27.3747 19.7308 27.7477C19.7345 28.0604 19.7345 28.3801 19.7345 28.7247ZM16.5075 23.3209C16.5521 23.2995 16.5744 23.296 16.593 23.2818C17.3468 22.8306 18.1006 22.3829 18.8507 21.9246C18.9027 21.8926 18.9473 21.8038 18.9473 21.7398C18.9547 21.0826 18.951 20.4288 18.951 19.7716C18.951 19.7396 18.9399 19.7112 18.9287 19.6614C18.134 20.1553 17.3579 20.6349 16.5818 21.1216C16.5335 21.1501 16.5075 21.2389 16.5075 21.2993C16.5001 21.6546 16.5038 22.0099 16.5038 22.3651C16.5075 22.6778 16.5075 22.9869 16.5075 23.3209ZM18.9547 15.9984C18.8953 16.0269 18.873 16.034 18.8507 16.0482C18.1043 16.51 17.3542 16.9719 16.6115 17.4409C16.5558 17.4764 16.5113 17.5724 16.5113 17.6434C16.5038 18.2652 16.5075 18.8869 16.5075 19.5087C16.5075 19.5513 16.515 19.5939 16.5224 19.6437C16.5558 19.633 16.5781 19.633 16.593 19.6259C17.3542 19.1711 18.1155 18.7199 18.8693 18.2581C18.9176 18.2296 18.9473 18.1444 18.951 18.084C18.9584 17.7926 18.9547 17.5048 18.9547 17.2135C18.9547 16.8156 18.9547 16.4212 18.9547 15.9984ZM16.5075 15.9913C16.567 15.9594 16.5967 15.9487 16.619 15.9345C17.3616 15.4904 18.1081 15.0463 18.847 14.5951C18.9027 14.5595 18.9436 14.4636 18.9473 14.3961C18.9547 13.8809 18.951 13.3658 18.951 12.8506C18.951 12.6872 18.951 12.5238 18.951 12.3603C18.9176 12.3603 18.9027 12.3568 18.8953 12.3603C18.1229 12.8364 17.3468 13.3125 16.5744 13.7921C16.541 13.8134 16.5075 13.8667 16.5075 13.9058C16.5075 14.5915 16.5075 15.2772 16.5075 15.9913ZM16.5075 26.9838C16.5521 26.9661 16.5744 26.959 16.5967 26.9483C17.3505 26.4971 18.108 26.0494 18.8582 25.5911C18.9139 25.5592 18.951 25.4561 18.951 25.3886C18.9584 24.7775 18.9547 24.17 18.9547 23.5589C18.9547 23.4914 18.9547 23.4239 18.9547 23.3457C18.9102 23.3599 18.8916 23.3599 18.8767 23.3706C18.1192 23.8396 17.3579 24.305 16.6041 24.7775C16.5521 24.8095 16.5113 24.9019 16.5113 24.9658C16.5038 25.3673 16.5075 25.7723 16.5075 26.1738C16.5075 26.4403 16.5075 26.7032 16.5075 26.9838ZM18.951 27.0052C18.899 27.0265 18.873 27.0371 18.847 27.0514C18.1006 27.5132 17.3505 27.9715 16.6078 28.4405C16.5521 28.476 16.5113 28.5755 16.5113 28.643C16.5038 29.2648 16.5038 29.8865 16.5075 30.5047C16.5075 30.5474 16.5187 30.59 16.5224 30.6468C16.5744 30.622 16.6078 30.6078 16.6375 30.59C17.3765 30.1494 18.1155 29.7089 18.8507 29.2612C18.9064 29.2257 18.9473 29.1298 18.9473 29.0623C18.9547 28.5187 18.951 27.9751 18.951 27.4315C18.951 27.2965 18.951 27.1615 18.951 27.0052ZM13.0837 23.8787C13.0392 23.8858 13.0132 23.8822 12.9946 23.8929C12.4673 24.1274 11.94 24.3583 11.4164 24.5999C11.3681 24.6212 11.3236 24.7065 11.3236 24.7633C11.3161 25.3389 11.3198 25.9109 11.3198 26.4864C11.3198 26.5291 11.331 26.5753 11.3384 26.6321C11.8991 26.3941 12.4413 26.1667 12.9798 25.9251C13.0317 25.9002 13.08 25.8114 13.08 25.751C13.0874 25.3531 13.0837 24.9587 13.0837 24.5608C13.0837 24.337 13.0837 24.1131 13.0837 23.8787ZM10.748 21.5693C10.7145 21.5729 10.696 21.5658 10.6811 21.5729C10.1427 21.8109 9.60422 22.0454 9.06948 22.2905C9.0212 22.3119 8.98407 22.3971 8.98407 22.454C8.97664 22.891 8.98035 23.328 8.97664 23.765C8.97664 23.9391 8.97664 24.1131 8.97664 24.3228C9.5708 24.0705 10.1278 23.836 10.6811 23.5944C10.7145 23.5802 10.7443 23.5198 10.7443 23.4807C10.7517 22.8448 10.748 22.2088 10.748 21.5693ZM9.16974 33.6739C9.75276 33.4252 10.2949 33.2013 10.8334 32.9633C10.8854 32.942 10.9299 32.8496 10.9299 32.7856C10.9411 32.4588 10.9336 32.1355 10.9336 31.8086C10.9336 31.5137 10.9336 31.2188 10.9336 30.9169C10.8928 30.924 10.8668 30.9204 10.8445 30.9311C10.3172 31.162 9.78989 31.3929 9.26629 31.6345C9.2143 31.6594 9.17345 31.7518 9.17345 31.8157C9.16603 32.2954 9.16974 32.775 9.16974 33.2546C9.16974 33.3825 9.16974 33.5104 9.16974 33.6739ZM9.16974 30.5758C9.75647 30.3271 10.3023 30.0961 10.8482 29.8545C10.8965 29.8332 10.9336 29.7444 10.9336 29.6876C10.9411 29.1013 10.9374 28.5151 10.9374 27.9289C10.9374 27.8934 10.9299 27.8543 10.9225 27.801C10.3543 28.0533 9.80474 28.2948 9.25886 28.5435C9.2143 28.5649 9.18088 28.6466 9.18088 28.6999C9.17345 28.9415 9.17345 29.1866 9.17345 29.4282C9.16974 29.7977 9.16974 30.1708 9.16974 30.5758ZM12.9463 20.5745C12.8721 20.6029 12.8201 20.6171 12.7718 20.6385C12.2965 20.8481 11.8212 21.0648 11.3421 21.2709C11.2344 21.3171 11.1862 21.3739 11.1862 21.4947C11.1936 22.056 11.1899 22.6209 11.1899 23.1823C11.1899 23.2285 11.1973 23.2711 11.2047 23.3386C11.7729 23.097 12.3262 22.8625 12.8758 22.6209C12.9166 22.6032 12.9426 22.5179 12.9463 22.4611C12.9538 22.1342 12.95 21.8109 12.95 21.484C12.9463 21.1856 12.9463 20.8907 12.9463 20.5745ZM11.5278 29.581C11.5761 29.5739 11.6021 29.5739 11.6206 29.5632C12.1405 29.3429 12.6604 29.1262 13.1766 28.8988C13.2286 28.874 13.2768 28.7851 13.2768 28.7247C13.2843 28.1456 13.2805 27.5665 13.2805 26.9838C13.2805 26.9412 13.2731 26.895 13.2657 26.8311C12.6975 27.0833 12.1479 27.3214 11.6021 27.5736C11.5575 27.5949 11.5278 27.6873 11.5278 27.7477C11.5204 28.2344 11.5241 28.7176 11.5241 29.2044C11.5278 29.3252 11.5278 29.446 11.5278 29.581ZM11.5278 32.6826C11.5761 32.672 11.6021 32.672 11.6243 32.6613C12.1442 32.441 12.6641 32.2243 13.1803 31.9934C13.2323 31.9685 13.2805 31.8797 13.2805 31.8193C13.288 31.2331 13.2843 30.6468 13.2843 30.0606C13.2843 30.0251 13.2731 29.986 13.2657 29.9327C12.7012 30.1814 12.1591 30.4195 11.6169 30.6646C11.5761 30.6824 11.5315 30.7534 11.5315 30.7961C11.5241 31.4178 11.5278 32.0396 11.5278 32.6826ZM10.8779 24.8379C10.7925 24.8735 10.7368 24.8948 10.6848 24.9196C10.2764 25.1008 9.8753 25.2998 9.45568 25.4561C9.1846 25.5556 9.09176 25.6942 9.10661 25.9748C9.13632 26.5113 9.11404 27.0478 9.11404 27.6056C9.1846 27.5807 9.23658 27.563 9.28486 27.5416C9.74904 27.3462 10.2058 27.1402 10.6737 26.9554C10.8297 26.895 10.8854 26.8204 10.8816 26.657C10.8705 26.1241 10.8779 25.5911 10.8779 25.0582C10.8779 24.9943 10.8779 24.9303 10.8779 24.8379Z" fill="#919191"/>
<path d="M24.2538 8.08264C24.6177 8.31002 24.9557 8.51609 25.2899 8.72571C27.0278 9.81288 28.7694 10.9001 30.511 11.9837C30.6261 12.0547 30.6595 12.1293 30.6595 12.2537C30.6558 20.1055 30.6558 27.9537 30.6558 35.8055C30.6558 35.8588 30.6558 35.9086 30.6558 35.9761C28.5169 35.9761 26.3928 35.9761 24.2575 35.9761C24.2538 26.6854 24.2538 17.4053 24.2538 8.08264Z" fill="#919191"/>
<path d="M31.1795 25.3141C33.7975 26.1135 36.3969 26.9093 39.0001 27.7016C39.0001 30.4195 39.0001 33.1304 39.0001 35.8518C36.3969 35.8518 33.7938 35.8518 31.1795 35.8518C31.1795 32.3487 31.1795 28.8421 31.1795 25.3141ZM34.4771 33.5674C34.4771 32.974 34.4808 32.4127 34.4696 31.8513C34.4696 31.8016 34.3879 31.7305 34.3285 31.7092C33.6452 31.4641 32.962 31.2296 32.275 30.9915C32.2156 30.9702 32.1524 30.956 32.0744 30.9311C32.0744 31.5778 32.0707 32.1924 32.0819 32.807C32.0819 32.8532 32.1561 32.9207 32.2118 32.9385C32.4161 33.006 32.6278 33.0557 32.8357 33.1126C33.3704 33.2618 33.9089 33.411 34.4771 33.5674ZM34.4733 30.1033C34.4733 29.51 34.4771 28.9415 34.4659 28.3766C34.4659 28.3305 34.3842 28.2665 34.3285 28.2452C33.6415 28 32.9471 27.762 32.2564 27.524C32.2007 27.5062 32.145 27.4955 32.0707 27.4742C32.0707 28.1173 32.067 28.7319 32.0782 29.3466C32.0782 29.3892 32.1599 29.4567 32.2156 29.4709C32.6835 29.6059 33.1514 29.7338 33.6193 29.8653C33.8978 29.9435 34.1726 30.0181 34.4733 30.1033ZM37.485 30.9418C37.485 30.3698 37.4813 29.8333 37.4887 29.2968C37.4924 29.1689 37.4441 29.1121 37.3216 29.0694C36.6309 28.835 35.9402 28.5898 35.2495 28.3518C35.2012 28.334 35.1492 28.3269 35.0824 28.3091C35.0824 28.9487 35.0786 29.5633 35.0861 30.1779C35.0861 30.2206 35.1529 30.2881 35.2012 30.3023C35.4129 30.3698 35.6282 30.4266 35.8399 30.4835C36.3784 30.6327 36.9168 30.7819 37.485 30.9418ZM37.485 34.4023C37.485 33.8303 37.4775 33.2938 37.4887 32.7573C37.4924 32.6223 37.4367 32.5726 37.3179 32.5335C36.8463 32.3736 36.3784 32.2066 35.9067 32.0467C35.6431 31.9544 35.3757 31.8655 35.1009 31.7732C35.0898 31.8158 35.0824 31.8371 35.0824 31.862C35.0824 32.4518 35.0786 33.0451 35.0861 33.6349C35.0861 33.6846 35.1641 33.7592 35.2235 33.777C35.5577 33.88 35.8956 33.9688 36.2335 34.0612C36.6457 34.1678 37.0505 34.2815 37.485 34.4023Z" fill="#919191"/>
</g>
<defs>
<clipPath id="clip0_0_496">
<rect width="31" height="28" fill="white" transform="translate(8 8.00098)"/>
</clipPath>
</defs>
</svg>
