<svg width="42" height="42" viewBox="0 0 42 42" fill="none" xmlns="http://www.w3.org/2000/svg">
<path d="M28 1.75H14C11.095 1.75 8.75 4.095 8.75 7V35C8.75 37.905 11.095 40.25 14 40.25H28C30.905 40.25 33.25 37.905 33.25 35V7C33.25 4.095 30.905 1.75 28 1.75ZM23.625 36.75H18.375C17.885 36.75 17.5 36.365 17.5 35.875C17.5 35.385 17.885 35 18.375 35H23.625C24.115 35 24.5 35.385 24.5 35.875C24.5 36.365 24.115 36.75 23.625 36.75ZM29.75 31.5H12.25V7H29.75V31.5Z" fill="url(#paint0_linear_0_615)"/>
<defs>
<linearGradient id="paint0_linear_0_615" x1="21" y1="1.75" x2="21" y2="40.25" gradientUnits="userSpaceOnUse">
<stop stop-color="#E83251"/>
<stop offset="1" stop-color="#E9456D"/>
</linearGradient>
</defs>
</svg>
