<svg width="67" height="47" viewBox="0 0 67 47" fill="none" xmlns="http://www.w3.org/2000/svg">
<g clip-path="url(#clip0_0_198)">
<path d="M61.8951 0.645152C62.9458 0.645152 63.9547 0.847778 64.807 1.37627C65.5862 1.85881 66.8875 3.04739 66.8416 5.56243C66.7831 8.74801 64.0299 10.1769 62.3839 11.029L61.8616 11.3027C59.6934 12.4725 58.0452 13.5274 56.677 14.6282C54.8617 16.0884 53.6481 17.4879 53.1822 18.2775C53.5102 18.3424 53.8382 18.3654 54.1828 18.3904C54.6925 18.4279 55.198 18.4676 55.6827 18.5595C58.1121 19.0212 60.4287 20.2307 62.2105 21.9646C66.3883 26.0336 67.6061 32.8749 65.1036 38.2309C62.7306 43.3111 57.3538 46.5947 51.4067 46.5947C46.8027 46.5947 42.6291 44.5937 39.6566 40.9548C36.2245 36.7603 34.7769 30.7838 35.8736 25.3547C37.6868 16.3808 44.7765 7.90618 54.8367 2.69228C55.9626 2.10947 59.075 0.645152 61.8951 0.645152ZM51.4067 42.417C55.8059 42.417 59.6035 40.1358 61.3164 36.4615C63.0899 32.6638 62.2397 27.8259 59.2944 24.9558C58.0933 23.786 56.5349 22.9713 54.9056 22.6621C54.5776 22.5996 54.2309 22.5807 53.8841 22.5556C53.1718 22.5055 52.3634 22.4471 51.5341 22.1733C49.5267 21.5112 48.994 20.1262 48.854 19.3596C48.4551 17.16 50.2056 14.4736 54.0575 11.3716C55.6284 10.11 57.4791 8.91721 59.8793 7.62418L60.4579 7.3192C61.9744 6.53377 62.6533 6.08048 62.6638 5.48306C62.6721 5.05274 62.5886 4.9086 62.5865 4.90651C62.106 4.57438 59.5179 4.97336 56.7605 6.40217C49.8525 9.98464 41.8123 17.0618 39.9678 26.184C39.1114 30.4142 40.231 35.062 42.8881 38.3102C44.4235 40.1839 47.1432 42.417 51.4067 42.417ZM26.3837 0.643066C27.4344 0.643066 28.4434 0.847778 29.2977 1.37627C30.0769 1.8609 31.3783 3.04739 31.3323 5.56243C31.2738 8.74801 28.5186 10.1769 26.8725 11.029L26.3524 11.3027C24.1841 12.4704 22.5359 13.5274 21.1656 14.6282C19.2856 16.1469 18.12 17.5089 17.6709 18.2775C17.9988 18.3424 18.3289 18.3654 18.6715 18.3904C19.1791 18.4279 19.6846 18.4676 20.1713 18.5595C22.6007 19.0212 24.9173 20.2307 26.6991 21.9646C30.8769 26.0336 32.0948 32.8748 29.5943 38.2287C27.1837 43.3883 21.9343 46.5947 15.8953 46.5947C11.2934 46.5947 7.11984 44.5915 4.14524 40.9548C0.713168 36.7603 -0.736531 30.7817 0.360141 25.3547C2.1754 16.3787 9.26515 7.90618 19.3253 2.69228C20.4533 2.10947 23.5637 0.645152 26.3837 0.643066ZM15.8953 42.417C20.2924 42.417 24.0901 40.1337 25.8051 36.4615C27.5785 32.6638 26.7263 27.8259 23.7809 24.9558C22.5819 23.786 21.0236 22.9713 19.3921 22.6621C19.0642 22.6017 18.7195 22.5807 18.3727 22.5556C17.6604 22.5055 16.852 22.4471 16.0206 22.1733C14.0132 21.5112 13.4805 20.1283 13.3406 19.3617C12.9416 17.1663 14.69 14.4778 18.542 11.3737C20.1191 10.1079 21.9698 8.91512 24.3679 7.62418L24.9465 7.3192C26.461 6.53377 27.1399 6.08048 27.1503 5.48306C27.1587 5.05274 27.0751 4.9086 27.073 4.90651C26.5989 4.57438 24.0065 4.97128 21.2471 6.40217C14.3391 9.98464 6.30099 17.0618 4.45649 26.184C3.60004 30.4142 4.71969 35.062 7.37678 38.3102C8.91212 40.1839 11.6319 42.417 15.8953 42.417Z" fill="white"/>
</g>
<defs>
<clipPath id="clip0_0_198">
<rect width="67" height="47" fill="white"/>
</clipPath>
</defs>
</svg>
