<svg width="38" height="19" viewBox="0 0 38 19" fill="none" xmlns="http://www.w3.org/2000/svg">
<path fill-rule="evenodd" clip-rule="evenodd" d="M7.09854 2.87589C7.38341 2.19095 8.35502 2.19095 8.63989 2.87589L9.96376 6.06024L13.4 6.33562C14.1401 6.39476 14.4403 7.3182 13.8763 7.80154L11.2584 10.0446L12.0577 13.3982C12.23 14.1206 11.4447 14.6911 10.8114 14.3044L7.86921 12.5071L4.92705 14.3044C4.29373 14.6911 3.50843 14.12 3.68075 13.3982L4.48004 10.0446L1.86217 7.80154C1.29815 7.3182 1.59828 6.39476 2.33843 6.33562L5.77466 6.06024L7.09854 2.87589Z" fill="#FDB022"/>
<path d="M19.442 10.6415L23.147 4.85655H24.915V10.7845H26.254V12.1885H24.915V14.0605H23.355V12.1885H19.442V10.6415ZM23.329 7.06655L21.028 10.7845H23.355V7.06655H23.329ZM28.6174 12.1365C29.1634 12.1365 29.6574 12.5525 29.6574 13.1245C29.6574 13.6965 29.1764 14.1385 28.6174 14.1385C28.0714 14.1385 27.5774 13.7095 27.5774 13.1505C27.5774 12.5785 28.0584 12.1365 28.6174 12.1365ZM34.388 4.70055C36.026 4.70055 37.209 5.63655 37.209 7.11855C37.209 8.13255 36.702 8.92555 35.818 9.18555V9.21155C36.754 9.39355 37.495 10.3815 37.495 11.4475C37.495 13.1635 36.221 14.2165 34.388 14.2165C32.568 14.2165 31.281 13.1895 31.281 11.4475C31.281 10.3685 32.009 9.41955 32.958 9.21155V9.18555C32.087 8.93855 31.567 8.13255 31.567 7.11855C31.567 5.62355 32.75 4.70055 34.388 4.70055ZM33.127 7.27455C33.127 8.01555 33.634 8.56155 34.388 8.56155C35.09 8.56155 35.649 8.00255 35.649 7.27455C35.649 6.57255 35.103 6.02655 34.375 6.02655C33.608 6.02655 33.127 6.55955 33.127 7.27455ZM32.841 11.2525C32.841 12.1365 33.491 12.7345 34.388 12.7345C35.285 12.7345 35.935 12.1365 35.935 11.2525C35.935 10.3945 35.233 9.80955 34.375 9.80955C33.556 9.80955 32.841 10.4205 32.841 11.2525Z" fill="white"/>
</svg>
