<svg width="118" height="22" viewBox="0 0 118 22" fill="none" xmlns="http://www.w3.org/2000/svg">
<path d="M9.92405 4.01321C10.3643 3.12141 11.6359 3.12141 12.0761 4.01321L13.5537 7.00649C13.7283 7.36031 14.0657 7.60566 14.4562 7.66273L17.7622 8.14596C18.7461 8.28977 19.1383 9.49918 18.426 10.193L16.0356 12.5212C15.7525 12.7969 15.6233 13.1942 15.6901 13.5837L16.254 16.8714C16.4222 17.8518 15.3931 18.5993 14.5127 18.1363L11.5586 16.5828C11.209 16.3989 10.7912 16.3989 10.4416 16.5828L7.48746 18.1363C6.6071 18.5993 5.57805 17.8518 5.74619 16.8714L6.31007 13.5837C6.37686 13.1942 6.24767 12.7969 5.96462 12.5212L3.57425 10.193C2.86194 9.49918 3.25408 8.28977 4.23798 8.14596L7.54404 7.66273C7.93447 7.60566 8.27189 7.36031 8.44654 7.00649L9.92405 4.01321Z" fill="#FFAA00"/>
<path d="M33.9241 4.01321C34.3643 3.12141 35.6359 3.12141 36.0761 4.01321L37.5537 7.00649C37.7283 7.36031 38.0657 7.60566 38.4562 7.66273L41.7622 8.14596C42.7461 8.28977 43.1383 9.49918 42.426 10.193L40.0356 12.5212C39.7525 12.7969 39.6233 13.1942 39.6901 13.5837L40.254 16.8714C40.4222 17.8518 39.3931 18.5993 38.5127 18.1363L35.5586 16.5828C35.209 16.3989 34.7912 16.3989 34.4416 16.5828L31.4875 18.1363C30.6071 18.5993 29.578 17.8518 29.7462 16.8714L30.3101 13.5837C30.3769 13.1942 30.2477 12.7969 29.9646 12.5212L27.5742 10.193C26.8619 9.49918 27.2541 8.28977 28.238 8.14596L31.544 7.66273C31.9345 7.60566 32.2719 7.36031 32.4465 7.00649L33.9241 4.01321Z" fill="#FFAA00"/>
<path d="M57.9241 4.01321C58.3643 3.12141 59.6359 3.12141 60.0761 4.01321L61.5537 7.00649C61.7283 7.36031 62.0657 7.60566 62.4562 7.66273L65.7622 8.14596C66.7461 8.28977 67.1383 9.49918 66.426 10.193L64.0356 12.5212C63.7525 12.7969 63.6233 13.1942 63.6901 13.5837L64.254 16.8714C64.4222 17.8518 63.3931 18.5993 62.5127 18.1363L59.5586 16.5828C59.209 16.3989 58.7912 16.3989 58.4416 16.5828L55.4875 18.1363C54.6071 18.5993 53.578 17.8518 53.7462 16.8714L54.3101 13.5837C54.3769 13.1942 54.2477 12.7969 53.9646 12.5212L51.5742 10.193C50.8619 9.49918 51.2541 8.28977 52.238 8.14596L55.544 7.66273C55.9345 7.60566 56.2719 7.36031 56.4465 7.00649L57.9241 4.01321Z" fill="#FFAA00"/>
<path d="M81.9241 4.01321C82.3643 3.12141 83.6359 3.12141 84.0761 4.01321L85.5537 7.00649C85.7283 7.36031 86.0657 7.60566 86.4562 7.66273L89.7622 8.14596C90.7461 8.28977 91.1383 9.49918 90.426 10.193L88.0356 12.5212C87.7525 12.7969 87.6233 13.1942 87.6901 13.5837L88.254 16.8714C88.4222 17.8518 87.3931 18.5993 86.5127 18.1363L83.5586 16.5828C83.209 16.3989 82.7912 16.3989 82.4416 16.5828L79.4875 18.1363C78.6071 18.5993 77.578 17.8518 77.7462 16.8714L78.3101 13.5837C78.3769 13.1942 78.2477 12.7969 77.9646 12.5212L75.5742 10.193C74.8619 9.49918 75.2541 8.28977 76.238 8.14596L79.544 7.66273C79.9345 7.60566 80.2719 7.36031 80.4465 7.00649L81.9241 4.01321Z" fill="#FFAA00"/>
<path d="M105.924 4.01321C106.364 3.12141 107.636 3.12141 108.076 4.01321L109.554 7.00649C109.728 7.36031 110.066 7.60566 110.456 7.66273L113.762 8.14596C114.746 8.28977 115.138 9.49918 114.426 10.193L112.036 12.5212C111.753 12.7969 111.623 13.1942 111.69 13.5837L112.254 16.8714C112.422 17.8518 111.393 18.5993 110.513 18.1363L107.559 16.5828C107.209 16.3989 106.791 16.3989 106.442 16.5828L103.487 18.1363C102.607 18.5993 101.578 17.8518 101.746 16.8714L102.31 13.5837C102.377 13.1942 102.248 12.7969 101.965 12.5212L99.5742 10.193C98.8619 9.49918 99.2541 8.28977 100.238 8.14596L103.544 7.66273C103.934 7.60566 104.272 7.36031 104.447 7.00649L105.924 4.01321Z" fill="#FFAA00"/>
</svg>
