<svg width="137" height="136" viewBox="0 0 137 136" fill="none" xmlns="http://www.w3.org/2000/svg">
<g clip-path="url(#clip0_0_1207)">
<path d="M8.23932 117.927C7.14286 117.564 6.40214 116.357 6.62721 115.296C6.80877 114.431 7.61476 113.624 8.47165 113.442C9.88033 113.144 11.3399 114.474 11.1947 115.906C11.1148 116.67 10.5412 117.455 9.81505 117.811C9.37205 118.022 8.68947 118.073 8.23932 117.927Z" fill="#FBDBE1"/>
<path d="M21.8238 117.928C21.0612 117.673 20.3713 116.903 20.2115 116.125C19.8993 114.627 21.3953 113.129 22.8913 113.442C24.0169 113.675 24.8883 114.823 24.7794 115.907C24.6995 116.67 24.1258 117.455 23.3996 117.811C22.9566 118.022 22.274 118.073 21.8238 117.928Z" fill="#FBDBE1"/>
<path d="M35.4084 117.928C34.6459 117.673 33.956 116.903 33.7962 116.125C33.484 114.627 34.9799 113.129 36.476 113.442C37.6016 113.675 38.473 114.823 38.3641 115.907C38.2842 116.67 37.7105 117.455 36.9843 117.811C36.5413 118.022 35.8587 118.073 35.4084 117.928Z" fill="#FBDBE1"/>
<path d="M48.9936 117.928C48.231 117.673 47.5412 116.903 47.3814 116.125C47.0692 114.627 48.5651 113.129 50.0611 113.442C51.1868 113.675 52.0582 114.823 51.9493 115.907C51.8694 116.67 51.2957 117.455 50.5695 117.811C50.1265 118.022 49.4439 118.073 48.9936 117.928Z" fill="#FBDBE1"/>
<path d="M62.5783 117.928C61.8157 117.673 61.1259 116.903 60.9661 116.125C60.6538 114.627 62.1498 113.129 63.6457 113.442C64.7714 113.675 65.6428 114.823 65.5339 115.907C65.454 116.67 64.8803 117.455 64.1541 117.811C63.7111 118.022 63.0285 118.073 62.5783 117.928Z" fill="#FBDBE1"/>
<path d="M76.1629 117.928C75.4005 117.673 74.7105 116.903 74.5507 116.125C74.2385 114.627 75.7344 113.129 77.2305 113.442C78.3561 113.675 79.2276 114.823 79.1186 115.907C79.0388 116.67 78.465 117.455 77.7388 117.811C77.2958 118.022 76.6132 118.073 76.1629 117.928Z" fill="#FBDBE1"/>
<path d="M89.7481 117.928C88.9855 117.673 88.2957 116.903 88.1359 116.125C87.8237 114.627 89.3196 113.129 90.8157 113.442C91.9413 113.675 92.8128 114.823 92.7038 115.907C92.6239 116.67 92.0502 117.455 91.324 117.811C90.881 118.022 90.1984 118.073 89.7481 117.928Z" fill="#FBDBE1"/>
<path d="M103.327 117.91C102.567 117.656 101.88 116.888 101.72 116.113C101.54 115.266 101.952 114.346 102.748 113.802C103.522 113.266 104.404 113.259 105.186 113.781C106.467 114.635 106.641 116.229 105.569 117.294C104.955 117.917 104.072 118.156 103.327 117.91Z" fill="#FBDBE1"/>
<path d="M116.912 117.91C116.152 117.656 115.465 116.888 115.306 116.113C115.124 115.266 115.537 114.346 116.333 113.802C117.106 113.266 117.989 113.259 118.771 113.781C120.051 114.635 120.225 116.229 119.154 117.294C118.54 117.917 117.657 118.156 116.912 117.91Z" fill="#FBDBE1"/>
<path d="M8.23932 104.327C7.14286 103.964 6.40214 102.757 6.62721 101.696C6.80877 100.831 7.61476 100.024 8.47165 99.8419C9.88033 99.5439 11.3399 100.874 11.1947 102.306C11.1148 103.07 10.5412 103.855 9.81505 104.211C9.37205 104.422 8.68947 104.473 8.23932 104.327Z" fill="#FBDBE1"/>
<path d="M21.8238 104.328C21.0612 104.073 20.3713 103.303 20.2115 102.525C19.8993 101.027 21.3953 99.5294 22.8913 99.842C24.0169 100.075 24.8883 101.223 24.7794 102.307C24.6995 103.07 24.1258 103.855 23.3996 104.211C22.9566 104.422 22.274 104.473 21.8238 104.328Z" fill="#FBDBE1"/>
<path d="M35.4084 104.328C34.6459 104.073 33.956 103.303 33.7962 102.525C33.484 101.027 34.9799 99.5294 36.476 99.842C37.6016 100.075 38.473 101.223 38.3641 102.307C38.2842 103.07 37.7105 103.855 36.9843 104.211C36.5413 104.422 35.8587 104.473 35.4084 104.328Z" fill="#FBDBE1"/>
<path d="M48.9936 104.328C48.231 104.073 47.5412 103.303 47.3814 102.525C47.0692 101.027 48.5651 99.5294 50.0611 99.842C51.1868 100.075 52.0582 101.223 51.9493 102.307C51.8694 103.07 51.2957 103.855 50.5695 104.211C50.1265 104.422 49.4439 104.473 48.9936 104.328Z" fill="#FBDBE1"/>
<path d="M62.5783 104.328C61.8157 104.073 61.1259 103.303 60.9661 102.525C60.6538 101.027 62.1498 99.5294 63.6457 99.842C64.7714 100.075 65.6428 101.223 65.5339 102.307C65.454 103.07 64.8803 103.855 64.1541 104.211C63.7111 104.422 63.0285 104.473 62.5783 104.328Z" fill="#FBDBE1"/>
<path d="M76.1629 104.328C75.4005 104.073 74.7105 103.303 74.5507 102.525C74.2385 101.027 75.7344 99.5294 77.2305 99.842C78.3561 100.075 79.2276 101.223 79.1186 102.307C79.0388 103.07 78.465 103.855 77.7388 104.211C77.2958 104.422 76.6132 104.473 76.1629 104.328Z" fill="#FBDBE1"/>
<path d="M89.7481 104.328C88.9855 104.073 88.2957 103.303 88.1359 102.525C87.8237 101.027 89.3196 99.5294 90.8157 99.842C91.9413 100.075 92.8128 101.223 92.7038 102.307C92.6239 103.07 92.0502 103.855 91.324 104.211C90.881 104.422 90.1984 104.473 89.7481 104.328Z" fill="#FBDBE1"/>
<path d="M103.327 104.31C102.567 104.056 101.88 103.288 101.72 102.513C101.54 101.666 101.952 100.746 102.748 100.202C103.522 99.6664 104.404 99.6592 105.186 100.181C106.467 101.035 106.641 102.629 105.569 103.694C104.955 104.317 104.072 104.556 103.327 104.31Z" fill="#FBDBE1"/>
<path d="M116.912 104.31C116.152 104.056 115.465 103.288 115.306 102.513C115.124 101.666 115.537 100.746 116.333 100.202C117.106 99.6664 117.989 99.6592 118.771 100.181C120.051 101.035 120.225 102.629 119.154 103.694C118.54 104.317 117.657 104.556 116.912 104.31Z" fill="#FBDBE1"/>
<path d="M8.23911 90.7279C7.47651 90.4734 6.78668 89.7028 6.62689 88.9249C6.31466 87.4273 7.81061 85.9297 9.30656 86.2422C10.4323 86.4749 11.3037 87.6235 11.1947 88.7068C11.1148 89.4701 10.5412 90.2554 9.81496 90.6116C9.37195 90.8224 8.68937 90.8734 8.23911 90.7279Z" fill="#FBDBE1"/>
<path d="M21.8238 90.7279C21.0612 90.4734 20.3713 89.7028 20.2115 88.9249C19.8993 87.4273 21.3953 85.9297 22.8912 86.2422C24.0169 86.4749 24.8883 87.6235 24.7794 88.7068C24.6995 89.4701 24.1258 90.2554 23.3996 90.6116C22.9566 90.8224 22.274 90.8734 21.8238 90.7279Z" fill="#FBDBE1"/>
<path d="M35.4084 90.7279C34.6458 90.4734 33.956 89.7028 33.7962 88.9249C33.484 87.4273 34.9799 85.9297 36.4759 86.2422C37.6016 86.4749 38.473 87.6235 38.3641 88.7068C38.2842 89.4701 37.7105 90.2554 36.9843 90.6116C36.5413 90.8224 35.8587 90.8734 35.4084 90.7279Z" fill="#FBDBE1"/>
<path d="M48.9936 90.7279C48.231 90.4734 47.5412 89.7028 47.3814 88.9249C47.0692 87.4273 48.5651 85.9297 50.0611 86.2422C51.1868 86.4749 52.0582 87.6235 51.9493 88.7068C51.8694 89.4701 51.2957 90.2554 50.5695 90.6116C50.1265 90.8224 49.4439 90.8734 48.9936 90.7279Z" fill="#FBDBE1"/>
<path d="M62.5783 90.7279C61.8157 90.4734 61.1259 89.7028 60.9661 88.9249C60.6538 87.4273 62.1498 85.9297 63.6457 86.2422C64.7714 86.4749 65.6428 87.6235 65.5339 88.7068C65.454 89.4701 64.8803 90.2554 64.1541 90.6116C63.7111 90.8224 63.0285 90.8734 62.5783 90.7279Z" fill="#FBDBE1"/>
<path d="M76.1629 90.7279C75.4005 90.4734 74.7105 89.7028 74.5507 88.9249C74.2385 87.4273 75.7344 85.9297 77.2305 86.2422C78.3561 86.4749 79.2275 87.6235 79.1186 88.7068C79.0387 89.4701 78.465 90.2554 77.7388 90.6116C77.2958 90.8224 76.6132 90.8734 76.1629 90.7279Z" fill="#FBDBE1"/>
<path d="M89.7481 90.7279C88.9855 90.4734 88.2957 89.7028 88.1359 88.9249C87.8237 87.4273 89.3196 85.9297 90.8157 86.2422C91.9413 86.4749 92.8127 87.6235 92.7038 88.7068C92.6239 89.4701 92.0502 90.2554 91.324 90.6116C90.881 90.8224 90.1984 90.8734 89.7481 90.7279Z" fill="#FBDBE1"/>
<path d="M103.333 90.7279C102.57 90.4734 101.88 89.7028 101.721 88.9249C101.408 87.4273 102.904 85.9297 104.4 86.2422C105.526 86.4749 106.397 87.6235 106.289 88.7068C106.208 89.4701 105.635 90.2554 104.909 90.6116C104.465 90.8224 103.783 90.8734 103.333 90.7279Z" fill="#FBDBE1"/>
<path d="M116.917 90.7279C116.155 90.4734 115.466 89.7028 115.306 88.9249C114.994 87.4273 116.489 85.9297 117.986 86.2422C119.111 86.4749 119.982 87.6235 119.874 88.7068C119.793 89.4701 119.22 90.2554 118.494 90.6116C118.051 90.8224 117.369 90.8734 116.917 90.7279Z" fill="#FBDBE1"/>
<path d="M8.23911 77.1279C7.47651 76.8734 6.78668 76.1027 6.62689 75.3248C6.31466 73.8272 7.81061 72.3295 9.30656 72.6422C10.4323 72.8748 11.3037 74.0235 11.1947 75.1067C11.1148 75.8701 10.5412 76.6552 9.81496 77.0115C9.37195 77.2224 8.68937 77.2732 8.23911 77.1279Z" fill="#FBDBE1"/>
<path d="M21.8238 77.1279C21.0612 76.8734 20.3713 76.1027 20.2115 75.3248C19.8993 73.8272 21.3953 72.3295 22.8913 72.6422C24.0169 72.8748 24.8883 74.0235 24.7794 75.1067C24.6995 75.8701 24.1258 76.6552 23.3996 77.0115C22.9566 77.2224 22.274 77.2732 21.8238 77.1279Z" fill="#FBDBE1"/>
<path d="M35.4084 77.1279C34.6459 76.8734 33.956 76.1027 33.7962 75.3248C33.484 73.8272 34.9799 72.3295 36.476 72.6422C37.6016 72.8748 38.473 74.0235 38.3641 75.1067C38.2842 75.8701 37.7105 76.6552 36.9843 77.0115C36.5413 77.2224 35.8587 77.2732 35.4084 77.1279Z" fill="#FBDBE1"/>
<path d="M48.9936 77.1279C48.231 76.8734 47.5412 76.1027 47.3814 75.3248C47.0692 73.8272 48.5651 72.3295 50.0611 72.6422C51.1868 72.8748 52.0582 74.0235 51.9493 75.1067C51.8694 75.8701 51.2957 76.6552 50.5695 77.0115C50.1265 77.2224 49.4439 77.2732 48.9936 77.1279Z" fill="#FBDBE1"/>
<path d="M62.5783 77.1279C61.8157 76.8734 61.1259 76.1027 60.9661 75.3248C60.6538 73.8272 62.1498 72.3295 63.6457 72.6422C64.7714 72.8748 65.6428 74.0235 65.5339 75.1067C65.454 75.8701 64.8803 76.6552 64.1541 77.0115C63.7111 77.2224 63.0285 77.2732 62.5783 77.1279Z" fill="#FBDBE1"/>
<path d="M76.1629 77.1279C75.4005 76.8734 74.7105 76.1027 74.5507 75.3248C74.2385 73.8272 75.7344 72.3295 77.2305 72.6422C78.3561 72.8748 79.2276 74.0235 79.1186 75.1067C79.0388 75.8701 78.465 76.6552 77.7388 77.0115C77.2958 77.2224 76.6132 77.2732 76.1629 77.1279Z" fill="#FBDBE1"/>
<path d="M89.7481 77.1279C88.9855 76.8734 88.2957 76.1027 88.1359 75.3248C87.8237 73.8272 89.3196 72.3295 90.8157 72.6422C91.9413 72.8748 92.8128 74.0235 92.7038 75.1067C92.6239 75.8701 92.0502 76.6552 91.324 77.0115C90.881 77.2224 90.1984 77.2732 89.7481 77.1279Z" fill="#FBDBE1"/>
<path d="M103.333 77.1279C102.57 76.8734 101.88 76.1027 101.721 75.3248C101.408 73.8272 102.904 72.3295 104.4 72.6422C105.526 72.8748 106.397 74.0235 106.289 75.1067C106.208 75.8701 105.635 76.6552 104.909 77.0115C104.465 77.2224 103.783 77.2732 103.333 77.1279Z" fill="#FBDBE1"/>
<path d="M116.917 77.1279C116.155 76.8734 115.466 76.1027 115.306 75.3248C114.994 73.8272 116.489 72.3295 117.986 72.6422C119.111 72.8748 119.982 74.0235 119.874 75.1067C119.793 75.8701 119.22 76.6552 118.494 77.0115C118.051 77.2224 117.369 77.2732 116.917 77.1279Z" fill="#FBDBE1"/>
<path d="M8.23911 63.5278C7.47651 63.2734 6.78668 62.5028 6.62689 61.7248C6.31466 60.2272 7.81061 58.7296 9.30656 59.0422C10.4323 59.2749 11.3037 60.4235 11.1947 61.5068C11.1148 62.2701 10.5412 63.0553 9.81496 63.4116C9.37195 63.6224 8.68937 63.6733 8.23911 63.5278Z" fill="#FBDBE1"/>
<path d="M21.8238 63.5278C21.0612 63.2734 20.3713 62.5028 20.2115 61.7248C19.8993 60.2272 21.3953 58.7296 22.8912 59.0422C24.0169 59.2749 24.8883 60.4235 24.7794 61.5068C24.6995 62.2701 24.1258 63.0553 23.3996 63.4116C22.9566 63.6224 22.274 63.6733 21.8238 63.5278Z" fill="#FBDBE1"/>
<path d="M35.4084 63.5278C34.6458 63.2734 33.956 62.5028 33.7962 61.7248C33.484 60.2272 34.9799 58.7296 36.4759 59.0422C37.6016 59.2749 38.473 60.4235 38.3641 61.5068C38.2842 62.2701 37.7105 63.0553 36.9843 63.4116C36.5413 63.6224 35.8587 63.6733 35.4084 63.5278Z" fill="#FBDBE1"/>
<path d="M48.9936 63.5278C48.231 63.2734 47.5412 62.5028 47.3814 61.7248C47.0692 60.2272 48.5651 58.7296 50.0611 59.0422C51.1868 59.2749 52.0582 60.4235 51.9493 61.5068C51.8694 62.2701 51.2957 63.0553 50.5695 63.4116C50.1265 63.6224 49.4439 63.6733 48.9936 63.5278Z" fill="#FBDBE1"/>
<path d="M62.5783 63.5278C61.8157 63.2734 61.1259 62.5028 60.9661 61.7248C60.6538 60.2272 62.1498 58.7296 63.6457 59.0422C64.7714 59.2749 65.6428 60.4235 65.5339 61.5068C65.454 62.2701 64.8803 63.0553 64.1541 63.4116C63.7111 63.6224 63.0285 63.6733 62.5783 63.5278Z" fill="#FBDBE1"/>
<path d="M76.1629 63.5278C75.4005 63.2734 74.7105 62.5028 74.5507 61.7248C74.2385 60.2272 75.7344 58.7296 77.2305 59.0422C78.3561 59.2749 79.2275 60.4235 79.1186 61.5068C79.0387 62.2701 78.465 63.0553 77.7388 63.4116C77.2958 63.6224 76.6132 63.6733 76.1629 63.5278Z" fill="#FBDBE1"/>
<path d="M89.7481 63.5278C88.9855 63.2734 88.2957 62.5028 88.1359 61.7248C87.8237 60.2272 89.3196 58.7296 90.8157 59.0422C91.9413 59.2749 92.8127 60.4235 92.7038 61.5068C92.6239 62.2701 92.0502 63.0553 91.324 63.4116C90.881 63.6224 90.1984 63.6733 89.7481 63.5278Z" fill="#FBDBE1"/>
<path d="M103.333 63.5278C102.57 63.2734 101.88 62.5028 101.721 61.7248C101.408 60.2272 102.904 58.7296 104.4 59.0422C105.526 59.2749 106.397 60.4235 106.289 61.5068C106.208 62.2701 105.635 63.0553 104.909 63.4116C104.465 63.6224 103.783 63.6733 103.333 63.5278Z" fill="#FBDBE1"/>
<path d="M116.917 63.5278C116.155 63.2734 115.466 62.5028 115.306 61.7248C114.994 60.2272 116.489 58.7296 117.986 59.0422C119.111 59.2749 119.982 60.4235 119.874 61.5068C119.793 62.2701 119.22 63.0553 118.494 63.4116C118.051 63.6224 117.369 63.6733 116.917 63.5278Z" fill="#FBDBE1"/>
<path d="M8.23911 49.9278C7.47651 49.6733 6.78668 48.9026 6.62689 48.1248C6.31466 46.6272 7.81061 45.1294 9.30656 45.4421C10.4323 45.6747 11.3037 46.8234 11.1947 47.9067C11.1148 48.67 10.5412 49.4551 9.81496 49.8114C9.37195 50.0223 8.68937 50.0731 8.23911 49.9278Z" fill="#FBDBE1"/>
<path d="M21.8238 49.9278C21.0612 49.6733 20.3713 48.9026 20.2115 48.1248C19.8993 46.6272 21.3953 45.1294 22.8912 45.4421C24.0169 45.6747 24.8883 46.8234 24.7794 47.9067C24.6995 48.67 24.1258 49.4551 23.3996 49.8114C22.9566 50.0223 22.274 50.0731 21.8238 49.9278Z" fill="#FBDBE1"/>
<path d="M35.4084 49.9278C34.6458 49.6733 33.956 48.9026 33.7962 48.1248C33.484 46.6272 34.9799 45.1294 36.4759 45.4421C37.6016 45.6747 38.473 46.8234 38.3641 47.9067C38.2842 48.67 37.7105 49.4551 36.9843 49.8114C36.5413 50.0223 35.8587 50.0731 35.4084 49.9278Z" fill="#FBDBE1"/>
<path d="M48.9936 49.9278C48.231 49.6733 47.5412 48.9026 47.3814 48.1248C47.0692 46.6272 48.5651 45.1294 50.0611 45.4421C51.1868 45.6747 52.0582 46.8234 51.9493 47.9067C51.8694 48.67 51.2957 49.4551 50.5695 49.8114C50.1265 50.0223 49.4439 50.0731 48.9936 49.9278Z" fill="#FBDBE1"/>
<path d="M62.5783 49.9278C61.8157 49.6733 61.1259 48.9026 60.9661 48.1248C60.6538 46.6272 62.1498 45.1294 63.6457 45.4421C64.7713 45.6747 65.6428 46.8234 65.5339 47.9067C65.454 48.67 64.8803 49.4551 64.1541 49.8114C63.7111 50.0223 63.0285 50.0731 62.5783 49.9278Z" fill="#FBDBE1"/>
<path d="M76.1629 49.9278C75.4005 49.6733 74.7105 48.9026 74.5507 48.1248C74.2385 46.6272 75.7344 45.1294 77.2305 45.4421C78.3561 45.6747 79.2275 46.8234 79.1186 47.9067C79.0387 48.67 78.465 49.4551 77.7388 49.8114C77.2958 50.0223 76.6132 50.0731 76.1629 49.9278Z" fill="#FBDBE1"/>
<path d="M89.7481 49.9278C88.9855 49.6733 88.2957 48.9026 88.1359 48.1248C87.8237 46.6272 89.3196 45.1294 90.8156 45.4421C91.9413 45.6747 92.8127 46.8234 92.7038 47.9067C92.6239 48.67 92.0502 49.4551 91.324 49.8114C90.881 50.0223 90.1984 50.0731 89.7481 49.9278Z" fill="#FBDBE1"/>
<path d="M103.333 49.9278C102.57 49.6733 101.88 48.9026 101.721 48.1248C101.408 46.6272 102.904 45.1294 104.4 45.4421C105.526 45.6747 106.397 46.8234 106.289 47.9067C106.208 48.67 105.635 49.4551 104.909 49.8114C104.465 50.0223 103.783 50.0731 103.333 49.9278Z" fill="#FBDBE1"/>
<path d="M116.917 49.9278C116.155 49.6733 115.466 48.9026 115.306 48.1248C114.994 46.6272 116.489 45.1294 117.986 45.4421C119.111 45.6747 119.982 46.8234 119.874 47.9067C119.793 48.67 119.22 49.4551 118.494 49.8114C118.051 50.0223 117.369 50.0731 116.917 49.9278Z" fill="#FBDBE1"/>
<path d="M8.23911 36.3276C7.47651 36.0732 6.78668 35.3026 6.62689 34.5246C6.31466 33.027 7.81061 31.5294 9.30667 31.842C10.4323 32.0747 11.3038 33.2233 11.1947 34.3066C11.1148 35.0699 10.5412 35.8551 9.81496 36.2114C9.37195 36.4222 8.68937 36.4731 8.23911 36.3276Z" fill="#FBDBE1"/>
<path d="M21.8172 36.3096C21.0575 36.0561 20.37 35.2882 20.2108 34.5132C20.03 33.6656 20.4423 32.7457 21.2383 32.2024C22.0126 31.6664 22.8953 31.6592 23.6767 32.1807C24.9575 33.0354 25.1311 34.629 24.0602 35.6939C23.4452 36.3168 22.5624 36.5559 21.8172 36.3096Z" fill="#FBDBE1"/>
<path d="M35.4024 36.3096C34.6427 36.0561 33.9553 35.2882 33.796 34.5132C33.6152 33.6656 34.0276 32.7457 34.8235 32.2024C35.5978 31.6664 36.4804 31.6592 37.2619 32.1807C38.5427 33.0354 38.7163 34.629 37.6454 35.6939C37.0304 36.3168 36.1476 36.5559 35.4024 36.3096Z" fill="#FBDBE1"/>
<path d="M48.9938 36.3272C47.8974 35.9638 47.1567 34.7569 47.3817 33.6957C47.5633 32.8306 48.3693 32.0237 49.2334 31.8419C50.6348 31.5439 52.0944 32.8742 51.9492 34.3063C51.8693 35.0696 51.2957 35.8547 50.5696 36.2109C50.1266 36.4217 49.444 36.4726 48.9938 36.3272Z" fill="#FBDBE1"/>
<path d="M62.5785 36.3272C61.482 35.9638 60.7413 34.7569 60.9664 33.6957C61.1479 32.8306 61.9539 32.0237 62.8181 31.8419C64.2195 31.5439 65.6791 32.8742 65.5339 34.3063C65.454 35.0696 64.8803 35.8547 64.1542 36.2109C63.7112 36.4217 63.0286 36.4726 62.5785 36.3272Z" fill="#FBDBE1"/>
<path d="M76.1637 36.3272C75.0672 35.9638 74.3265 34.7569 74.5516 33.6957C74.7331 32.8306 75.5391 32.0237 76.4033 31.8419C77.8047 31.5439 79.2643 32.8742 79.119 34.3063C79.0392 35.0696 78.4655 35.8547 77.7394 36.2109C77.2964 36.4217 76.6138 36.4726 76.1637 36.3272Z" fill="#FBDBE1"/>
<path d="M89.7484 36.3272C88.6519 35.9638 87.9112 34.7569 88.1362 33.6957C88.3178 32.8306 89.1238 32.0237 89.9879 31.8419C91.3894 31.5439 92.8489 32.8742 92.7038 34.3063C92.6239 35.0696 92.0502 35.8547 91.3241 36.2109C90.8811 36.4217 90.1985 36.4726 89.7484 36.3272Z" fill="#FBDBE1"/>
<path d="M103.333 36.3276C102.57 36.0732 101.88 35.3026 101.721 34.5246C101.408 33.027 102.904 31.5294 104.4 31.842C105.526 32.0747 106.397 33.2233 106.289 34.3066C106.208 35.0699 105.635 35.8551 104.909 36.2114C104.465 36.4222 103.783 36.4731 103.333 36.3276Z" fill="#FBDBE1"/>
<path d="M116.917 36.3276C116.155 36.0732 115.466 35.3026 115.306 34.5246C114.994 33.027 116.489 31.5294 117.986 31.842C119.112 32.0747 119.982 33.2233 119.874 34.3066C119.793 35.0699 119.22 35.8551 118.494 36.2114C118.051 36.4222 117.369 36.4731 116.917 36.3276Z" fill="#FBDBE1"/>
<path d="M8.23911 22.7279C7.47651 22.4734 6.78668 21.7028 6.62689 20.9249C6.31466 19.4273 7.81061 17.9297 9.30656 18.2422C10.4323 18.4749 11.3037 19.6236 11.1947 20.7068C11.1148 21.4702 10.5412 22.2554 9.81496 22.6116C9.37195 22.8224 8.68937 22.8734 8.23911 22.7279Z" fill="#FBDBE1"/>
<path d="M21.8172 22.7096C21.0575 22.456 20.37 21.6882 20.2108 20.9131C20.03 20.0656 20.4423 19.1457 21.2383 18.6024C22.0126 18.0663 22.8953 18.0591 23.6768 18.5806C24.9575 19.4354 25.1312 21.0291 24.0603 22.0939C23.4452 22.7168 22.5625 22.9559 21.8172 22.7096Z" fill="#FBDBE1"/>
<path d="M35.4024 22.7096C34.6427 22.456 33.9553 21.6882 33.796 20.9131C33.6152 20.0656 34.0276 19.1457 34.8235 18.6024C35.5978 18.0663 36.4805 18.0591 37.262 18.5806C38.5427 19.4354 38.7164 21.0291 37.6455 22.0939C37.0304 22.7168 36.1477 22.9559 35.4024 22.7096Z" fill="#FBDBE1"/>
<path d="M48.9938 22.7271C47.8974 22.3636 47.1567 21.1569 47.3817 20.0955C47.5633 19.2304 48.3693 18.4235 49.2334 18.2418C50.6348 17.9437 52.0944 19.2741 51.9492 20.7061C51.8693 21.4695 51.2957 22.2546 50.5696 22.6108C50.1266 22.8216 49.444 22.8724 48.9938 22.7271Z" fill="#FBDBE1"/>
<path d="M62.5785 22.7271C61.482 22.3636 60.7413 21.1569 60.9664 20.0955C61.1479 19.2304 61.9539 18.4235 62.8181 18.2418C64.2195 17.9437 65.6791 19.2741 65.5339 20.7061C65.454 21.4695 64.8803 22.2546 64.1542 22.6108C63.7112 22.8216 63.0286 22.8724 62.5785 22.7271Z" fill="#FBDBE1"/>
<path d="M76.1637 22.7271C75.0671 22.3636 74.3265 21.1569 74.5516 20.0955C74.7331 19.2304 75.5391 18.4235 76.4033 18.2418C77.8047 17.9437 79.2643 19.2741 79.119 20.7061C79.0391 21.4695 78.4655 22.2546 77.7393 22.6108C77.2964 22.8216 76.6138 22.8724 76.1637 22.7271Z" fill="#FBDBE1"/>
<path d="M89.7484 22.7271C88.6519 22.3636 87.9112 21.1569 88.1362 20.0955C88.3178 19.2304 89.1238 18.4235 89.9879 18.2418C91.3894 17.9437 92.8489 19.2741 92.7038 20.7061C92.6239 21.4695 92.0502 22.2546 91.3241 22.6108C90.8811 22.8216 90.1985 22.8724 89.7484 22.7271Z" fill="#FBDBE1"/>
<path d="M103.333 22.7279C102.57 22.4734 101.88 21.7028 101.721 20.9249C101.408 19.4273 102.904 17.9297 104.4 18.2422C105.526 18.4749 106.397 19.6236 106.289 20.7068C106.208 21.4702 105.635 22.2554 104.909 22.6116C104.465 22.8224 103.783 22.8734 103.333 22.7279Z" fill="#FBDBE1"/>
<path d="M116.917 22.7279C116.155 22.4734 115.466 21.7028 115.306 20.9249C114.994 19.4273 116.489 17.9297 117.986 18.2422C119.111 18.4749 119.982 19.6236 119.874 20.7068C119.793 21.4702 119.22 22.2554 118.494 22.6116C118.051 22.8224 117.369 22.8734 116.917 22.7279Z" fill="#FBDBE1"/>
<path d="M8.23911 9.12788C7.47651 8.8734 6.78668 8.10269 6.62689 7.32473C6.31466 5.82757 7.81061 4.32926 9.30656 4.6416C10.4323 4.87442 11.3037 6.0235 11.1947 7.10689C11.1148 7.86987 10.5412 8.65522 9.81496 9.01147C9.37195 9.22239 8.68937 9.27321 8.23911 9.12788Z" fill="#FBDBE1"/>
<path d="M21.8172 9.10949C21.0575 8.85604 20.37 8.08775 20.2108 7.31325C20.03 6.46613 20.4423 5.54525 21.2383 5.0024C22.0126 4.46647 22.8953 4.45955 23.6768 4.9805C24.9575 5.83568 25.1311 7.4285 24.0603 8.4938C23.4452 9.11674 22.5625 9.35578 21.8172 9.10949Z" fill="#FBDBE1"/>
<path d="M35.4024 9.10949C34.6427 8.85604 33.9553 8.08775 33.796 7.31325C33.6152 6.46613 34.0276 5.54525 34.8235 5.0024C35.5978 4.46647 36.4805 4.45955 37.2619 4.9805C38.5427 5.83568 38.7163 7.4285 37.6454 8.4938C37.0304 9.11674 36.1476 9.35578 35.4024 9.10949Z" fill="#FBDBE1"/>
<path d="M48.9936 9.12788C48.231 8.8734 47.5412 8.10269 47.3814 7.32473C47.0692 5.82757 48.5651 4.32926 50.0611 4.6416C51.1868 4.87442 52.0582 6.0235 51.9493 7.10689C51.8694 7.86987 51.2957 8.65522 50.5695 9.01147C50.1265 9.22239 49.4439 9.27321 48.9936 9.12788Z" fill="#FBDBE1"/>
<path d="M62.5783 9.12788C61.8157 8.8734 61.1259 8.10269 60.9661 7.32473C60.6538 5.82757 62.1498 4.32926 63.6457 4.6416C64.7714 4.87442 65.6428 6.0235 65.5339 7.10689C65.454 7.86987 64.8803 8.65522 64.1541 9.01147C63.7111 9.22239 63.0285 9.27321 62.5783 9.12788Z" fill="#FBDBE1"/>
<path d="M76.1629 9.12788C75.4005 8.8734 74.7105 8.10269 74.5507 7.32473C74.2385 5.82757 75.7344 4.32926 77.2305 4.6416C78.3561 4.87442 79.2275 6.0235 79.1186 7.10689C79.0387 7.86987 78.465 8.65522 77.7388 9.01147C77.2958 9.22239 76.6132 9.27321 76.1629 9.12788Z" fill="#FBDBE1"/>
<path d="M89.7481 9.12788C88.9855 8.8734 88.2957 8.10269 88.1359 7.32473C87.8237 5.82757 89.3196 4.32926 90.8157 4.6416C91.9413 4.87442 92.8127 6.0235 92.7038 7.10689C92.6239 7.86987 92.0502 8.65522 91.324 9.01147C90.881 9.22239 90.1984 9.27321 89.7481 9.12788Z" fill="#FBDBE1"/>
<path d="M103.333 9.12788C102.57 8.8734 101.88 8.10269 101.721 7.32473C101.408 5.82757 102.904 4.32926 104.4 4.6416C105.526 4.87442 106.397 6.0235 106.289 7.10689C106.208 7.86987 105.635 8.65522 104.909 9.01147C104.465 9.22239 103.783 9.27321 103.333 9.12788Z" fill="#FBDBE1"/>
<path d="M116.917 9.12788C116.155 8.8734 115.466 8.10269 115.306 7.32473C114.994 5.82757 116.489 4.32926 117.986 4.6416C119.111 4.87442 119.982 6.0235 119.874 7.10689C119.793 7.86987 119.22 8.65522 118.494 9.01147C118.051 9.22239 117.369 9.27321 116.917 9.12788Z" fill="#FBDBE1"/>
</g>
<defs>
<clipPath id="clip0_0_1207">
<rect width="137" height="136" fill="white" transform="matrix(1 0 0 -1 0 136)"/>
</clipPath>
</defs>
</svg>
