<svg width="14" height="19" viewBox="0 0 14 19" fill="none" xmlns="http://www.w3.org/2000/svg">
<path d="M6.66667 5.12882C6.17221 5.12882 5.68886 5.27545 5.27774 5.55015C4.86662 5.82485 4.54619 6.2153 4.35697 6.67212C4.16775 7.12893 4.11824 7.6316 4.2147 8.11655C4.31117 8.6015 4.54927 9.04696 4.8989 9.39659C5.24853 9.74622 5.69399 9.98433 6.17894 10.0808C6.66389 10.1773 7.16656 10.1277 7.62337 9.93852C8.08019 9.7493 8.47064 9.42887 8.74534 9.01775C9.02004 8.60663 9.16667 8.12328 9.16667 7.62882C9.16667 6.96578 8.90327 6.3299 8.43443 5.86106C7.96559 5.39222 7.32971 5.12882 6.66667 5.12882ZM6.66667 8.46216C6.50185 8.46216 6.34073 8.41328 6.20369 8.32172C6.06665 8.23015 5.95984 8.1 5.89677 7.94773C5.83369 7.79546 5.81719 7.6279 5.84935 7.46625C5.8815 7.3046 5.96087 7.15611 6.07741 7.03957C6.19395 6.92303 6.34244 6.84366 6.50409 6.8115C6.66574 6.77935 6.8333 6.79585 6.98557 6.85892C7.13784 6.922 7.26799 7.02881 7.35956 7.16585C7.45113 7.30289 7.5 7.46401 7.5 7.62882C7.5 7.84984 7.4122 8.0618 7.25592 8.21808C7.09964 8.37436 6.88768 8.46216 6.66667 8.46216ZM6.66667 0.962158C4.89856 0.962158 3.20286 1.66454 1.95262 2.91478C0.702379 4.16502 0 5.86071 0 7.62882C0 12.6288 4.475 16.3872 6.09167 17.9288C6.24665 18.0766 6.45255 18.159 6.66667 18.159C6.88078 18.159 7.08669 18.0766 7.24167 17.9288C8.85833 16.3872 13.3333 12.6288 13.3333 7.62882C13.3333 5.86071 12.631 4.16502 11.3807 2.91478C10.1305 1.66454 8.43478 0.962158 6.66667 0.962158ZM6.66667 16.1788C5 14.5788 1.66667 11.4122 1.66667 7.62882C1.66667 6.30274 2.19345 5.03097 3.13113 4.09329C4.06881 3.15561 5.34058 2.62882 6.66667 2.62882C7.99275 2.62882 9.26452 3.15561 10.2022 4.09329C11.1399 5.03097 11.6667 6.30274 11.6667 7.62882C11.6667 11.4122 8.375 14.5788 6.66667 16.1788Z" fill="white"/>
</svg>
