<svg width="15" height="15" viewBox="0 0 15 15" fill="none" xmlns="http://www.w3.org/2000/svg">
<path d="M14.8435 7.53052C14.8577 9.09847 14.3135 10.6252 13.2988 11.8639C12.284 13.1026 10.858 13.981 9.25121 14.3571C7.64441 14.7332 5.9507 14.585 4.44379 13.9365C2.93687 13.288 1.7048 12.177 0.946675 10.7832C0.893745 10.6929 0.86039 10.5936 0.848572 10.491C0.836754 10.3884 0.846712 10.2845 0.877859 10.1856C0.909006 10.0867 0.960714 9.99466 1.02994 9.91494C1.09917 9.83522 1.18453 9.76942 1.28099 9.72141C1.37745 9.67339 1.48306 9.64413 1.59163 9.63535C1.7002 9.62656 1.80953 9.63843 1.91319 9.67025C2.01684 9.70207 2.11274 9.7532 2.19524 9.82064C2.27774 9.88807 2.34517 9.97046 2.39358 10.0629C2.73904 10.6778 3.20515 11.2245 3.76691 11.6738C4.61109 12.3548 5.64592 12.7887 6.74559 12.9229C7.84525 13.0571 8.96239 12.8858 9.96118 12.4297C10.96 11.9736 11.7974 11.2525 12.3716 10.3539C12.9459 9.45537 13.2322 8.41812 13.1958 7.36828C13.1594 6.31844 12.8018 5.30123 12.1666 4.44032C11.5313 3.57941 10.6458 2.91188 9.61752 2.51889C8.58929 2.12589 7.46269 2.02437 6.37469 2.22665C5.2867 2.42893 4.28416 2.92631 3.48897 3.65831H5.03397C5.25077 3.65831 5.4587 3.7399 5.612 3.88514C5.7653 4.03038 5.85143 4.22736 5.85143 4.43275C5.85143 4.63815 5.7653 4.83513 5.612 4.98037C5.4587 5.1256 5.25077 5.20719 5.03397 5.20719H1.76413C1.54733 5.20719 1.33941 5.1256 1.1861 4.98037C1.0328 4.83513 0.946675 4.63815 0.946675 4.43275V1.33499C0.946675 1.12959 1.0328 0.932611 1.1861 0.787375C1.33941 0.64214 1.54733 0.560547 1.76413 0.560547C1.98094 0.560547 2.18886 0.64214 2.34216 0.787375C2.49547 0.932611 2.58159 1.12959 2.58159 1.33499V2.34176C3.63975 1.44512 4.94914 0.857671 6.35183 0.650269C7.75452 0.442866 9.19059 0.62437 10.4868 1.17289C11.7831 1.72141 12.8841 2.61351 13.6571 3.74159C14.4302 4.86968 14.8422 6.18556 14.8435 7.53052ZM7.48635 5.20719C7.26954 5.20719 7.06162 5.28879 6.90832 5.43402C6.75501 5.57926 6.66889 5.77624 6.66889 5.98164V7.53052C6.66979 7.73369 6.75493 7.92838 6.90595 8.07263L8.54087 9.62151C8.6948 9.76734 8.90357 9.84927 9.12126 9.84927C9.33895 9.84927 9.54773 9.76734 9.70166 9.62151C9.85559 9.47568 9.94207 9.27789 9.94207 9.07166C9.94207 8.86542 9.85559 8.66763 9.70166 8.5218L8.30381 7.213V5.98164C8.30381 5.77624 8.21768 5.57926 8.06438 5.43402C7.91107 5.28879 7.70315 5.20719 7.48635 5.20719Z" fill="white"/>
</svg>
