<svg width="10" height="13" viewBox="0 0 10 13" fill="none" xmlns="http://www.w3.org/2000/svg">
<path d="M0.45804 0.716309C0.672383 0.770918 0.940306 0.770924 1.15465 0.825533C1.69051 0.934752 2.27996 0.989361 2.81582 1.09858C3.56602 1.2078 4.26264 1.31701 5.01284 1.48083C5.60229 1.59005 6.19172 1.69927 6.72758 1.80849C7.26344 1.91771 7.85289 1.97232 8.38875 2.08154C8.87102 2.13615 9.29971 2.24536 9.78198 2.29997C9.88916 2.29997 9.99632 2.40919 9.94274 2.57302C9.78198 3.0645 9.62122 3.55599 9.46047 4.04747C9.35329 4.37512 9.19253 4.70277 9.08536 5.03043C9.03177 5.19425 8.97819 5.30348 8.92461 5.46731C8.76385 5.95879 8.60309 6.45026 8.38875 6.94174C8.22799 7.37862 8.06723 7.8155 7.90648 8.25238C7.74572 8.63464 7.63854 9.01689 7.47778 9.39915C7.26344 10.0545 6.94192 10.6552 6.40606 11.092C5.92379 11.5289 5.38793 11.802 4.79848 11.9658C4.31621 12.1296 3.83395 12.1296 3.35168 12.075C2.92299 12.0204 2.49429 11.9112 2.11919 11.6927C1.52974 11.3651 0.993896 10.9828 0.67238 10.3821C0.404451 9.94526 0.190107 9.50838 0.136521 8.96229C-0.0242366 8.14315 0.243696 7.32401 0.19011 6.50488C0.19011 6.45027 0.19011 6.45026 0.19011 6.39565C0.243696 5.63113 0.243686 4.86661 0.297272 4.10208C0.350858 3.17373 0.404454 2.24536 0.45804 1.2624C0.350868 1.09857 0.404454 0.934745 0.45804 0.716309Z" fill="white"/>
</svg>
