<svg width="14" height="19" viewBox="0 0 14 19" fill="none" xmlns="http://www.w3.org/2000/svg">
<path d="M11.375 0.560547H2.625C1.92881 0.560547 1.26113 0.837109 0.768845 1.32939C0.276562 1.82167 0 2.48935 0 3.18555V16.8268C0.00552343 17.0587 0.057103 17.2872 0.151739 17.499C0.246374 17.7108 0.382178 17.9017 0.55125 18.0605C0.877567 18.376 1.31366 18.5523 1.7675 18.5523C2.22134 18.5523 2.65743 18.376 2.98375 18.0605L6.895 14.158L7 14.1143L7.105 14.158L11.0163 18.0605C11.261 18.3038 11.5721 18.4693 11.9106 18.5362C12.2491 18.6031 12.5998 18.5685 12.9187 18.4367C13.2376 18.3048 13.5104 18.0816 13.7027 17.7952C13.8951 17.5088 13.9986 17.1718 14 16.8268V3.18555C14 2.48935 13.7234 1.82167 13.2312 1.32939C12.7389 0.837109 12.0712 0.560547 11.375 0.560547ZM12.25 16.8268L8.3475 12.9155C7.98766 12.5628 7.50387 12.3653 7 12.3653C6.49613 12.3653 6.01234 12.5628 5.6525 12.9155L1.75 16.818V5.81055H12.25V16.8268ZM12.25 4.06055H1.75V3.18555C1.75 2.95348 1.84219 2.73092 2.00628 2.56683C2.17038 2.40273 2.39294 2.31055 2.625 2.31055H11.375C11.6071 2.31055 11.8296 2.40273 11.9937 2.56683C12.1578 2.73092 12.25 2.95348 12.25 3.18555V4.06055Z" fill="white"/>
</svg>
